COMMENT @(#)56	1.2  src/bos/usr/lpp/tls/fonts/Chtpd12.bdf, cmdtw, bos411, 9428A410j 2/24/94 13:39:17
COMMENT
COMMENT   COMPONENT_NAME: cmdtw
COMMENT
COMMENT   FUNCTIONS: none
COMMENT
COMMENT   ORIGINS: 27
COMMENT
COMMENT   IBM CONFIDENTIAL -- (IBM Confidential Restricted when
COMMENT   combined with the aggregated modules for this product)
COMMENT                    SOURCE MATERIALS
COMMENT
COMMENT   (C) COPYRIGHT International Business Machines Corp. 1992
COMMENT   All Rights Reserved
COMMENT   US Government Users Restricted Rights - Use, duplication or
COMMENT   disclosure restricted by GSA ADP Schedule Contract with IBM Corp.
COMMENT
STARTFONT 2.1
FONT  -IBM_AIX-Sung-Medium-R-Normal--19-120-100-100-M-180-IBM-sbdTW
SIZE 19 100 100
FONTBOUNDINGBOX 18 19 0 -1
STARTPROPERTIES 20
FONTNAME_REGISTRY "_"
FOUNDRY "IBM_AIX "
FAMILY_NAME "Sung"
WEIGHT_NAME "Medium "
SLANT "R"
SETWIDTH_NAME "Normal"
ADD_STYLE_NAME ""
PIXEL_SIZE 19
POINT_SIZE 120
RESOLUTION_X 100
RESOLUTION_Y 100
SPACING "M"
AVERAGE_WIDTH 180
CHARSET_REGISTRY "IBM"
CHARSET_ENCODING "sbdTW"
FONT_ASCENT 18
FONT_DESCENT 1
DEFAULT_CHAR 0
CAP_HEIGHT 19
COPYRIGHT "Copyright, 1992 by IBM."
ENDPROPERTIES
CHARS 325
STARTCHAR 2121
ENCODING 8481
SWIDTH 954 0
DWIDTH 18 0
BBX 18 19 0 -1
BITMAP
000000
100000
080000
440000
200000
100000
000000
000000
000000
000000
000000
000000
000000
000000
000000
000000
000000
000000
000000
ENDCHAR
STARTCHAR 2122
ENCODING 8482
SWIDTH 954 0
DWIDTH 18 0
BBX 18 19 0 -1
BITMAP
000000
380000
440000
440000
440000
380000
000000
000000
000000
000000
000000
000000
000000
000000
000000
000000
000000
000000
000000
ENDCHAR
STARTCHAR 2123
ENCODING 8483
SWIDTH 954 0
DWIDTH 18 0
BBX 18 19 0 -1
BITMAP
000000
066000
066000
000000
000000
000000
000000
000000
000000
000000
000000
000000
000000
000000
000000
000000
000000
000000
000000
ENDCHAR
STARTCHAR 2124
ENCODING 8484
SWIDTH 954 0
DWIDTH 18 0
BBX 18 19 0 -1
BITMAP
000000
008000
014000
022000
000000
000000
000000
000000
000000
000000
000000
000000
000000
000000
000000
000000
000000
000000
000000
ENDCHAR
STARTCHAR 2125
ENCODING 8485
SWIDTH 954 0
DWIDTH 18 0
BBX 18 19 0 -1
BITMAP
000000
000000
000000
000000
000000
000000
040000
020000
010000
018000
00c000
00c000
000000
000000
000000
000000
000000
000000
000000
ENDCHAR
STARTCHAR 2126
ENCODING 8486
SWIDTH 954 0
DWIDTH 18 0
BBX 18 19 0 -1
BITMAP
000000
000000
000000
000000
000000
002000
089000
044000
020000
030000
018000
018000
000000
000000
000000
000000
000000
000000
000000
ENDCHAR
STARTCHAR 2127
ENCODING 8487
SWIDTH 954 0
DWIDTH 18 0
BBX 18 19 0 -1
BITMAP
000000
000000
000000
000000
000000
040000
040000
030000
00c000
006000
003000
01f000
002000
000000
000000
000000
000000
000000
000000
ENDCHAR
STARTCHAR 2128
ENCODING 8488
SWIDTH 954 0
DWIDTH 18 0
BBX 18 19 0 -1
BITMAP
000000
000000
000000
000000
000000
081000
084800
062000
018000
00c000
006000
03e000
004000
000000
000000
000000
000000
000000
000000
ENDCHAR
STARTCHAR 2129
ENCODING 8489
SWIDTH 954 0
DWIDTH 18 0
BBX 18 19 0 -1
BITMAP
000000
000000
000000
000000
000000
011000
011000
011000
022000
022000
022000
044000
044000
000000
000000
000000
000000
000000
000000
ENDCHAR
STARTCHAR 212a
ENCODING 8490
SWIDTH 954 0
DWIDTH 18 0
BBX 18 19 0 -1
BITMAP
000000
008000
014000
022000
041000
080800
100400
200200
4ff900
008000
008000
008000
008000
008000
008000
3ffe00
000000
000000
000000
ENDCHAR
STARTCHAR 212b
ENCODING 8491
SWIDTH 954 0
DWIDTH 18 0
BBX 18 19 0 -1
BITMAP
000000
000000
008000
00c000
008000
010000
01f800
020c00
040800
081000
121000
012000
00c000
006000
003000
000000
000000
000000
000000
ENDCHAR
STARTCHAR 212c
ENCODING 8492
SWIDTH 954 0
DWIDTH 18 0
BBX 18 19 0 -1
BITMAP
000000
000000
000200
000100
000300
000400
001800
032000
0cc000
10b000
111800
220c00
240000
280000
180000
100000
000000
000000
000000
ENDCHAR
STARTCHAR 212d
ENCODING 8493
SWIDTH 954 0
DWIDTH 18 0
BBX 18 19 0 -1
BITMAP
000000
000000
000000
000000
03e000
0c1800
100400
100400
200200
200200
200200
100400
100400
0c1800
03e000
000000
000000
000000
000000
ENDCHAR
STARTCHAR 212e
ENCODING 8494
SWIDTH 954 0
DWIDTH 18 0
BBX 18 19 0 -1
BITMAP
000000
000000
000000
000000
000000
000000
000000
000000
000400
3ffe00
000000
000000
000000
000000
000000
000000
000000
000000
000000
ENDCHAR
STARTCHAR 212f
ENCODING 8495
SWIDTH 954 0
DWIDTH 18 0
BBX 18 19 0 -1
BITMAP
000000
000000
000000
000000
000000
000000
000000
000000
07f000
000000
000000
000000
000000
000000
000000
000000
000000
000000
000000
ENDCHAR
STARTCHAR 2130
ENCODING 8496
SWIDTH 954 0
DWIDTH 18 0
BBX 18 19 0 -1
BITMAP
000000
001e00
001000
001000
001000
001000
001000
001000
001000
001000
001000
001000
001000
001000
001000
001000
001e00
000000
000000
ENDCHAR
STARTCHAR 2131
ENCODING 8497
SWIDTH 954 0
DWIDTH 18 0
BBX 18 19 0 -1
BITMAP
000000
3c0000
040000
040000
040000
040000
040000
040000
040000
040000
040000
040000
040000
040000
040000
040000
3c0000
000000
000000
ENDCHAR
STARTCHAR 2132
ENCODING 8498
SWIDTH 954 0
DWIDTH 18 0
BBX 18 19 0 -1
BITMAP
000000
080000
080000
100000
100000
200000
200000
000000
000000
000000
000000
000000
000000
000000
000000
000000
000000
000000
000000
ENDCHAR
STARTCHAR 2133
ENCODING 8499
SWIDTH 954 0
DWIDTH 18 0
BBX 18 19 0 -1
BITMAP
000000
090000
090000
120000
120000
240000
240000
000000
000000
000000
000000
000000
000000
000000
000000
000000
000000
000000
000000
ENDCHAR
STARTCHAR 2134
ENCODING 8500
SWIDTH 954 0
DWIDTH 18 0
BBX 18 19 0 -1
BITMAP
000000
000000
000000
008000
008000
108400
088800
049000
022000
000000
022000
049000
088800
108400
008000
008000
000000
000000
000000
ENDCHAR
STARTCHAR 2135
ENCODING 8501
SWIDTH 954 0
DWIDTH 18 0
BBX 18 19 0 -1
BITMAP
000000
000000
000000
1ffc00
1ffc00
1ffc00
1ffc00
000000
000000
000000
000000
1ffc00
1ffc00
1ffc00
1ffc00
000000
000000
000000
000000
ENDCHAR
STARTCHAR 2136
ENCODING 8502
SWIDTH 954 0
DWIDTH 18 0
BBX 18 19 0 -1
BITMAP
000000
000000
000000
000000
07f800
080000
100000
100000
1ff800
100000
100000
080000
07f800
000000
000000
000000
000000
000000
000000
ENDCHAR
STARTCHAR 2137
ENCODING 8503
SWIDTH 954 0
DWIDTH 18 0
BBX 18 19 0 -1
BITMAP
000000
000000
000000
000000
1fe000
001000
000800
000800
1ff800
000800
000800
001000
1fe000
000000
000000
000000
000000
000000
000000
ENDCHAR
STARTCHAR 2138
ENCODING 8504
SWIDTH 954 0
DWIDTH 18 0
BBX 18 19 0 -1
BITMAP
000000
000000
000000
0ffc00
100000
200000
200000
200000
200000
100000
0ffc00
000000
000000
3ffc00
000000
000000
000000
000000
000000
ENDCHAR
STARTCHAR 2139
ENCODING 8505
SWIDTH 954 0
DWIDTH 18 0
BBX 18 19 0 -1
BITMAP
000000
000000
000000
3ff000
000800
000400
000400
000400
000400
000800
3ff000
000000
000000
3ffc00
000000
000000
000000
000000
000000
ENDCHAR
STARTCHAR 213a
ENCODING 8506
SWIDTH 954 0
DWIDTH 18 0
BBX 18 19 0 -1
BITMAP
000000
000000
000000
000000
07fc00
080000
100000
200000
200000
200000
200000
100000
080000
07fc00
000000
000000
000000
000000
000000
ENDCHAR
STARTCHAR 213b
ENCODING 8507
SWIDTH 954 0
DWIDTH 18 0
BBX 18 19 0 -1
BITMAP
000000
000000
000000
000000
3fe000
001000
000800
000400
000400
000400
000400
000800
001000
3fe000
000000
000000
000000
000000
000000
ENDCHAR
STARTCHAR 213c
ENCODING 8508
SWIDTH 954 0
DWIDTH 18 0
BBX 18 19 0 -1
BITMAP
000000
000000
000000
010000
010000
028000
028000
044000
044000
082000
082000
101000
101000
200800
200800
000000
000000
000000
000000
ENDCHAR
STARTCHAR 213d
ENCODING 8509
SWIDTH 954 0
DWIDTH 18 0
BBX 18 19 0 -1
BITMAP
000000
000000
000000
100400
100400
080800
080800
041000
041000
022000
022000
014000
014000
008000
008000
000000
000000
000000
000000
ENDCHAR
STARTCHAR 213e
ENCODING 8510
SWIDTH 954 0
DWIDTH 18 0
BBX 18 19 0 -1
BITMAP
000000
000000
000000
000000
001000
000800
7ffc00
000200
000100
000200
7ffc00
000800
001000
000000
000000
000000
000000
000000
000000
ENDCHAR
STARTCHAR 213f
ENCODING 8511
SWIDTH 954 0
DWIDTH 18 0
BBX 18 19 0 -1
BITMAP
000000
000000
000000
000000
041000
080800
1ffc00
200200
400100
200200
1ffc00
080800
041000
000000
000000
000000
000000
000000
000000
ENDCHAR
STARTCHAR 2140
ENCODING 8512
SWIDTH 954 0
DWIDTH 18 0
BBX 18 19 0 -1
BITMAP
000000
000000
200200
200200
100400
100400
0ff800
080800
041000
041000
022000
022000
014000
014000
008000
008000
000000
000000
000000
ENDCHAR
STARTCHAR 2141
ENCODING 8513
SWIDTH 954 0
DWIDTH 18 0
BBX 18 19 0 -1
BITMAP
000000
000000
000000
0ff800
000800
000800
000800
000800
0ff800
000800
000800
000800
000800
0ff800
000000
000000
000000
000000
000000
ENDCHAR
STARTCHAR 2142
ENCODING 8514
SWIDTH 954 0
DWIDTH 18 0
BBX 18 19 0 -1
BITMAP
000000
03e000
1c1c00
600300
000000
000000
000000
000000
000000
000000
000000
000000
000000
000000
000000
000000
000000
000000
000000
ENDCHAR
STARTCHAR 2143
ENCODING 8515
SWIDTH 954 0
DWIDTH 18 0
BBX 18 19 0 -1
BITMAP
000000
000000
00f000
010800
020800
000800
000800
01c800
023000
041000
081000
082000
082000
084000
078000
000000
000000
000000
000000
ENDCHAR
STARTCHAR 2144
ENCODING 8516
SWIDTH 954 0
DWIDTH 18 0
BBX 18 19 0 -1
BITMAP
000000
000000
3ffe00
100400
100400
080800
080800
041000
041000
022000
022000
014000
014000
008000
008000
000000
000000
000000
000000
ENDCHAR
STARTCHAR 2145
ENCODING 8517
SWIDTH 954 0
DWIDTH 18 0
BBX 18 19 0 -1
BITMAP
000000
000000
004200
008400
031800
042000
18c000
210000
420000
210000
108000
084000
063000
010800
008400
004200
000000
000000
000000
ENDCHAR
STARTCHAR 2146
ENCODING 8518
SWIDTH 954 0
DWIDTH 18 0
BBX 18 19 0 -1
BITMAP
000000
000000
420000
210000
18c000
042000
031800
008400
004200
008400
010800
021000
0c6000
108000
210000
420000
000000
000000
000000
ENDCHAR
STARTCHAR 2147
ENCODING 8519
SWIDTH 954 0
DWIDTH 18 0
BBX 18 19 0 -1
BITMAP
000000
000000
000000
000000
000000
1c3800
204400
408200
408200
410200
410200
220400
1c3800
000000
000000
000000
000000
000000
000000
ENDCHAR
STARTCHAR 2148
ENCODING 8520
SWIDTH 954 0
DWIDTH 18 0
BBX 18 19 0 -1
BITMAP
000000
000000
000000
000000
000000
1e3c00
214200
408000
408000
408000
408000
214200
1e3c00
000000
000000
000000
000000
000000
000000
ENDCHAR
STARTCHAR 2149
ENCODING 8521
SWIDTH 954 0
DWIDTH 18 0
BBX 18 19 0 -1
BITMAP
000000
061800
092400
082000
082000
082000
041000
041000
041000
020800
020800
020800
010400
010400
010400
092400
061800
000000
000000
ENDCHAR
STARTCHAR 214a
ENCODING 8522
SWIDTH 954 0
DWIDTH 18 0
BBX 18 19 0 -1
BITMAP
000000
00c000
012000
012000
00c000
000000
008000
014000
014000
022000
041000
0ff800
080800
100400
7c1f00
000000
000000
000000
000000
ENDCHAR
STARTCHAR 214b
ENCODING 8523
SWIDTH 954 0
DWIDTH 18 0
BBX 18 19 0 -1
BITMAP
000000
000000
182000
242000
244000
248000
248000
250000
1a0000
02c600
052900
092900
092900
112900
212900
20c600
000000
000000
000000
ENDCHAR
STARTCHAR 214c
ENCODING 8524
SWIDTH 954 0
DWIDTH 18 0
BBX 18 19 0 -1
BITMAP
000000
002000
042000
042000
043c00
07fc00
3fe000
3c2000
042000
042000
043c00
07fc00
3fe000
3c2000
042000
042000
040000
000000
000000
ENDCHAR
STARTCHAR 214d
ENCODING 8525
SWIDTH 954 0
DWIDTH 18 0
BBX 18 19 0 -1
BITMAP
000000
040000
040000
040000
040000
040000
040000
05c000
062000
041000
041000
041000
042000
044000
048000
070000
040000
000000
000000
ENDCHAR
STARTCHAR 214e
ENCODING 8526
SWIDTH 954 0
DWIDTH 18 0
BBX 18 19 0 -1
BITMAP
000000
008000
008000
00c000
00a000
009000
008800
008400
008400
008400
008800
009000
008000
0e8000
1f8000
1f0000
0e0000
000000
000000
ENDCHAR
STARTCHAR 214f
ENCODING 8527
SWIDTH 954 0
DWIDTH 18 0
BBX 18 19 0 -1
BITMAP
000000
010000
038000
092000
1ff000
092000
010000
07c000
038000
038000
038000
010000
010000
010000
010000
010000
010000
000000
000000
ENDCHAR
STARTCHAR 2150
ENCODING 8528
SWIDTH 954 0
DWIDTH 18 0
BBX 18 19 0 -1
BITMAP
000000
010000
038000
092000
1ff000
092000
038000
038000
010000
010000
038000
038000
092000
1ff000
092000
038000
010000
000000
000000
ENDCHAR
STARTCHAR 2151
ENCODING 8529
SWIDTH 954 0
DWIDTH 18 0
BBX 18 19 0 -1
BITMAP
000000
000000
03e000
0f2000
1f2000
1f2000
1f2000
0f2000
032000
012000
012000
012000
012000
012000
012000
012000
012000
000000
000000
ENDCHAR
STARTCHAR 2152
ENCODING 8530
SWIDTH 954 0
DWIDTH 18 0
BBX 18 19 0 -1
BITMAP
000000
01c000
063000
080800
100400
200200
200200
400100
400100
400100
400100
200200
200200
100400
080800
063000
01c000
000000
000000
ENDCHAR
STARTCHAR 2153
ENCODING 8531
SWIDTH 954 0
DWIDTH 18 0
BBX 18 19 0 -1
BITMAP
000000
000000
000000
000000
010000
010000
01c000
0e0000
024000
03f000
064800
0a8400
0a8400
110400
130800
0c1000
004000
000000
000000
ENDCHAR
STARTCHAR 2154
ENCODING 8532
SWIDTH 954 0
DWIDTH 18 0
BBX 18 19 0 -1
BITMAP
000000
030000
010000
01c000
0e0000
022000
03f000
064800
0a4400
128200
128200
230200
220400
250400
181800
006000
000000
000000
000000
ENDCHAR
STARTCHAR 2155
ENCODING 8533
SWIDTH 954 0
DWIDTH 18 0
BBX 18 19 0 -1
BITMAP
000000
000000
000000
000000
000000
000000
000000
101000
080800
080400
080400
090000
050000
060000
020000
000000
000000
000000
000000
ENDCHAR
STARTCHAR 2156
ENCODING 8534
SWIDTH 954 0
DWIDTH 18 0
BBX 18 19 0 -1
BITMAP
000000
000000
000000
000000
400800
200400
200200
200200
200100
100100
110000
110000
0a0000
060000
020000
000000
000000
000000
000000
ENDCHAR
STARTCHAR 2157
ENCODING 8535
SWIDTH 954 0
DWIDTH 18 0
BBX 18 19 0 -1
BITMAP
000000
000000
000000
000000
000000
018000
006000
000000
00e000
051000
021000
001000
001000
001000
002000
004000
008000
000000
000000
ENDCHAR
STARTCHAR 2158
ENCODING 8536
SWIDTH 954 0
DWIDTH 18 0
BBX 18 19 0 -1
BITMAP
000000
020000
018000
00c000
000000
00c000
132000
0c1000
001000
001000
001000
001000
002000
002000
004000
008000
020000
000000
000000
ENDCHAR
STARTCHAR 2159
ENCODING 8537
SWIDTH 954 0
DWIDTH 18 0
BBX 18 19 0 -1
BITMAP
000000
000000
000000
000000
000000
010000
00c000
000000
00e000
072000
004000
008000
01c000
024000
044000
087800
000000
000000
000000
ENDCHAR
STARTCHAR 215a
ENCODING 8538
SWIDTH 954 0
DWIDTH 18 0
BBX 18 19 0 -1
BITMAP
000000
020000
018000
008000
002000
01f000
1e2000
084000
008000
010000
010000
038000
044000
084000
304000
203e00
000000
000000
000000
ENDCHAR
STARTCHAR 215b
ENCODING 8539
SWIDTH 954 0
DWIDTH 18 0
BBX 18 19 0 -1
BITMAP
000000
000000
000000
000000
000000
020000
022000
039800
0e0800
020000
02e000
031000
020800
060800
1a9000
066000
000000
000000
000000
ENDCHAR
STARTCHAR 215c
ENCODING 8540
SWIDTH 954 0
DWIDTH 18 0
BBX 18 19 0 -1
BITMAP
000000
000000
0c0000
041800
070600
1c0200
040000
040000
05f000
060800
0c0400
140400
640400
348800
0c7000
080000
000000
000000
000000
ENDCHAR
STARTCHAR 215d
ENCODING 8541
SWIDTH 954 0
DWIDTH 18 0
BBX 18 19 0 -1
BITMAP
000000
000000
020000
030800
020400
040200
07c200
7c2700
042100
082000
084000
104000
104000
228000
618000
410000
000000
000000
000000
ENDCHAR
STARTCHAR 215e
ENCODING 8542
SWIDTH 954 0
DWIDTH 18 0
BBX 18 19 0 -1
BITMAP
000000
000200
021500
030a00
020400
040200
07c200
7c2700
042100
082000
084000
104000
104000
228000
618000
410000
000000
000000
000000
ENDCHAR
STARTCHAR 215f
ENCODING 8543
SWIDTH 954 0
DWIDTH 18 0
BBX 18 19 0 -1
BITMAP
000000
010000
019800
00e000
1f8000
004c00
007000
1fa000
001000
000800
03fc00
040600
080000
080000
040000
03f000
000000
000000
000000
ENDCHAR
STARTCHAR 2160
ENCODING 8544
SWIDTH 954 0
DWIDTH 18 0
BBX 18 19 0 -1
BITMAP
000000
020200
032900
01c400
3f0000
009800
00e000
3f4000
002000
001000
07f800
080c00
100000
100000
080000
07e000
000000
000000
000000
ENDCHAR
STARTCHAR 2161
ENCODING 8545
SWIDTH 954 0
DWIDTH 18 0
BBX 18 19 0 -1
BITMAP
000000
002000
002000
004000
008000
008000
010000
020000
040000
040000
020000
010000
008000
008000
004000
006000
002000
000000
000000
ENDCHAR
STARTCHAR 2162
ENCODING 8546
SWIDTH 954 0
DWIDTH 18 0
BBX 18 19 0 -1
BITMAP
000000
002000
002000
004000
008400
009200
010800
020000
040000
040000
020000
010000
008000
008000
004000
006000
002000
000000
000000
ENDCHAR
STARTCHAR 2163
ENCODING 8547
SWIDTH 954 0
DWIDTH 18 0
BBX 18 19 0 -1
BITMAP
000000
001000
081000
081000
080800
101e00
11e800
100800
100800
100800
100800
140800
140800
181000
081000
082000
008000
000000
000000
ENDCHAR
STARTCHAR 2164
ENCODING 8548
SWIDTH 954 0
DWIDTH 18 0
BBX 18 19 0 -1
BITMAP
000000
002200
102900
102400
101000
203c00
23d000
201000
201000
201000
201000
281000
281000
302000
102000
104000
010000
000000
000000
ENDCHAR
STARTCHAR 2165
ENCODING 8549
SWIDTH 954 0
DWIDTH 18 0
BBX 18 19 0 -1
BITMAP
000000
000000
000000
080000
07f000
003800
00c000
010000
000000
000000
100000
200000
200000
100000
0ffc00
000000
000000
000000
000000
ENDCHAR
STARTCHAR 2166
ENCODING 8550
SWIDTH 954 0
DWIDTH 18 0
BBX 18 19 0 -1
BITMAP
000000
000200
000900
080400
07f000
003800
00c000
010000
000000
000000
100000
200000
200000
100000
0ffc00
000000
000000
000000
000000
ENDCHAR
STARTCHAR 2167
ENCODING 8551
SWIDTH 954 0
DWIDTH 18 0
BBX 18 19 0 -1
BITMAP
000000
010000
018000
009800
00e000
1f4000
002000
002000
001000
03f800
0c0c00
100000
100000
100000
0c0000
03f000
000000
000000
000000
ENDCHAR
STARTCHAR 2168
ENCODING 8552
SWIDTH 954 0
DWIDTH 18 0
BBX 18 19 0 -1
BITMAP
000000
020200
030900
013400
01c000
3e8000
004000
004000
002000
07f000
181800
200000
200000
200000
180000
07e000
000000
000000
000000
ENDCHAR
STARTCHAR 2169
ENCODING 8553
SWIDTH 954 0
DWIDTH 18 0
BBX 18 19 0 -1
BITMAP
000000
000000
180000
0c0000
080000
080000
080000
080000
080000
080000
080000
080200
080400
080800
043000
03c000
000000
000000
000000
ENDCHAR
STARTCHAR 216a
ENCODING 8554
SWIDTH 954 0
DWIDTH 18 0
BBX 18 19 0 -1
BITMAP
000000
000000
180000
0c1000
084800
082000
080000
080000
080000
080000
080000
080200
080400
080800
043000
03c000
000000
000000
000000
ENDCHAR
STARTCHAR 216b
ENCODING 8555
SWIDTH 954 0
DWIDTH 18 0
BBX 18 19 0 -1
BITMAP
000000
00c000
006000
004000
43ff00
3c4000
004000
01c000
024000
024000
024000
024000
01c000
008000
008000
010000
040000
000000
000000
ENDCHAR
STARTCHAR 216c
ENCODING 8556
SWIDTH 954 0
DWIDTH 18 0
BBX 18 19 0 -1
BITMAP
000000
00c200
006900
004400
43ff00
3c4000
004000
01c000
024000
024000
024000
024000
01c000
008000
008000
010000
040000
000000
000000
ENDCHAR
STARTCHAR 216d
ENCODING 8557
SWIDTH 954 0
DWIDTH 18 0
BBX 18 19 0 -1
BITMAP
000000
000000
003000
0c1800
061000
041000
043f00
07d000
7c1000
049000
046000
042000
040000
020000
01fc00
000000
000000
000000
000000
ENDCHAR
STARTCHAR 216e
ENCODING 8558
SWIDTH 954 0
DWIDTH 18 0
BBX 18 19 0 -1
BITMAP
000000
000000
003200
0c1900
061400
041000
043f00
07d000
7c1000
049000
046000
042000
040000
020000
01fc00
000000
000000
000000
000000
ENDCHAR
STARTCHAR 216f
ENCODING 8559
SWIDTH 954 0
DWIDTH 18 0
BBX 18 19 0 -1
BITMAP
000000
002000
07f000
024000
008000
010000
027f00
07a000
784000
008000
010000
010000
010000
010000
00c000
003000
000000
000000
000000
ENDCHAR
STARTCHAR 2170
ENCODING 8560
SWIDTH 954 0
DWIDTH 18 0
BBX 18 19 0 -1
BITMAP
000000
002000
07f000
024200
008900
010400
027f00
07a000
784000
008000
010000
010000
010000
010000
00c000
003000
000000
000000
000000
ENDCHAR
STARTCHAR 2171
ENCODING 8561
SWIDTH 954 0
DWIDTH 18 0
BBX 18 19 0 -1
BITMAP
000000
040000
040000
070000
3c0000
043c00
080600
080800
080000
080000
080000
100000
100000
108000
206000
201e00
000000
000000
000000
ENDCHAR
STARTCHAR 2172
ENCODING 8562
SWIDTH 954 0
DWIDTH 18 0
BBX 18 19 0 -1
BITMAP
000000
040200
040900
058400
1e0000
043c00
080600
080800
080000
080000
080000
100000
108000
106000
201e00
200000
000000
000000
000000
ENDCHAR
STARTCHAR 2173
ENCODING 8563
SWIDTH 954 0
DWIDTH 18 0
BBX 18 19 0 -1
BITMAP
000000
020000
020000
02e000
3f0000
040000
040000
040000
04f800
0b0400
0c0200
180200
000200
000400
001800
01e000
000000
000000
000000
ENDCHAR
STARTCHAR 2174
ENCODING 8564
SWIDTH 954 0
DWIDTH 18 0
BBX 18 19 0 -1
BITMAP
000000
020200
020900
02e400
3f0000
040000
040000
040000
04f800
0b0400
0c0200
180200
000200
000400
001800
01e000
000000
000000
000000
ENDCHAR
STARTCHAR 2175
ENCODING 8565
SWIDTH 954 0
DWIDTH 18 0
BBX 18 19 0 -1
BITMAP
000000
000000
000000
000000
000000
000000
000000
000000
007000
038800
1c0400
080400
000400
000800
003000
00c000
000000
000000
000000
ENDCHAR
STARTCHAR 2176
ENCODING 8566
SWIDTH 954 0
DWIDTH 18 0
BBX 18 19 0 -1
BITMAP
000000
000000
000000
000000
00f800
070400
780200
200100
000100
000100
000200
000200
000400
001800
01e000
000000
000000
000000
000000
ENDCHAR
STARTCHAR 2177
ENCODING 8567
SWIDTH 954 0
DWIDTH 18 0
BBX 18 19 0 -1
BITMAP
000000
000200
000900
000400
00f800
070400
780200
200100
000100
000100
000200
000200
000400
001800
01e000
000000
000000
000000
000000
ENDCHAR
STARTCHAR 2178
ENCODING 8568
SWIDTH 954 0
DWIDTH 18 0
BBX 18 19 0 -1
BITMAP
000000
000000
000000
00fe00
7f4000
208000
010000
010000
020000
020000
020000
020000
010000
010000
00c000
003000
000000
000000
000000
ENDCHAR
STARTCHAR 2179
ENCODING 8569
SWIDTH 954 0
DWIDTH 18 0
BBX 18 19 0 -1
BITMAP
000000
000000
000000
00fe00
7f4000
208000
010400
011200
020800
020000
020000
020000
010000
010000
00c000
003000
000000
000000
000000
ENDCHAR
STARTCHAR 217a
ENCODING 8570
SWIDTH 954 0
DWIDTH 18 0
BBX 18 19 0 -1
BITMAP
000000
000000
100000
080000
080800
040800
043000
02c000
030000
040000
080000
080000
100000
100000
080000
07f800
000000
000000
000000
ENDCHAR
STARTCHAR 217b
ENCODING 8571
SWIDTH 954 0
DWIDTH 18 0
BBX 18 19 0 -1
BITMAP
000000
000200
200900
100400
101000
081000
086000
058000
060000
080000
100000
100000
200000
200000
100000
0ff000
000000
000000
000000
ENDCHAR
STARTCHAR 217c
ENCODING 8572
SWIDTH 954 0
DWIDTH 18 0
BBX 18 19 0 -1
BITMAP
000000
040000
060000
058000
3e1000
080c00
081e00
102200
102000
202000
602000
402000
03e000
043800
042c00
03c000
000000
000000
000000
ENDCHAR
STARTCHAR 217d
ENCODING 8573
SWIDTH 954 0
DWIDTH 18 0
BBX 18 19 0 -1
BITMAP
000000
000000
100000
080000
08fe00
080c00
101000
100000
100000
100000
108000
150000
148000
187f00
080000
080000
000000
000000
000000
ENDCHAR
STARTCHAR 217e
ENCODING 8574
SWIDTH 954 0
DWIDTH 18 0
BBX 18 19 0 -1
BITMAP
000000
018000
00c000
008000
31f000
168800
190400
110200
290200
2a0200
4a0200
443a00
464400
4a4600
303900
000000
000000
000000
000000
ENDCHAR
STARTCHAR 2221
ENCODING 8737
SWIDTH 954 0
DWIDTH 18 0
BBX 18 19 0 -1
BITMAP
000000
060000
020000
030000
3e3800
04c400
050200
060200
040200
0c0200
0c0200
143a00
344600
244700
0c3900
040000
000000
000000
000000
ENDCHAR
STARTCHAR 2222
ENCODING 8738
SWIDTH 954 0
DWIDTH 18 0
BBX 18 19 0 -1
BITMAP
000000
000000
000000
01f000
068c00
088200
108200
110100
210100
210100
220100
220200
140200
180c00
003000
000000
000000
000000
000000
ENDCHAR
STARTCHAR 2223
ENCODING 8739
SWIDTH 954 0
DWIDTH 18 0
BBX 18 19 0 -1
BITMAP
000000
000000
201000
101000
101e00
11f000
201000
201000
201000
201000
201000
281000
29f000
321c00
311600
10e000
000000
000000
000000
ENDCHAR
STARTCHAR 2224
ENCODING 8740
SWIDTH 954 0
DWIDTH 18 0
BBX 18 19 0 -1
BITMAP
000000
000200
402900
202400
203800
23e000
402000
402000
402000
402000
402000
502000
53e000
643800
622c00
21c000
000000
000000
000000
ENDCHAR
STARTCHAR 2225
ENCODING 8741
SWIDTH 954 0
DWIDTH 18 0
BBX 18 19 0 -1
BITMAP
000000
000600
402900
202900
203e00
23e000
402000
402000
402000
402000
402000
502000
53e000
643800
622c00
21c000
000000
000000
000000
ENDCHAR
STARTCHAR 2226
ENCODING 8742
SWIDTH 954 0
DWIDTH 18 0
BBX 18 19 0 -1
BITMAP
000000
000000
010000
071800
3a0800
040c00
080c00
080a00
100900
100800
100800
100800
101000
101000
0c6000
038000
000000
000000
000000
ENDCHAR
STARTCHAR 2227
ENCODING 8743
SWIDTH 954 0
DWIDTH 18 0
BBX 18 19 0 -1
BITMAP
000000
000200
020900
0e3400
741000
081800
101800
101400
201200
201000
201000
201000
202000
202000
18c000
070000
000000
000000
000000
ENDCHAR
STARTCHAR 2228
ENCODING 8744
SWIDTH 954 0
DWIDTH 18 0
BBX 18 19 0 -1
BITMAP
000000
000600
020900
0e3900
741600
081000
101800
101400
201200
201000
201000
201000
202000
202000
18c000
070000
000000
000000
000000
ENDCHAR
STARTCHAR 2229
ENCODING 8745
SWIDTH 954 0
DWIDTH 18 0
BBX 18 19 0 -1
BITMAP
000000
000000
010000
00c000
00e000
010000
020000
020000
010000
009000
024400
082200
502300
642500
21c000
000000
000000
000000
000000
ENDCHAR
STARTCHAR 222a
ENCODING 8746
SWIDTH 954 0
DWIDTH 18 0
BBX 18 19 0 -1
BITMAP
000000
000000
010000
00c000
00e200
010900
020400
020000
010000
009000
024400
082200
502300
642500
21c000
000000
000000
000000
000000
ENDCHAR
STARTCHAR 222b
ENCODING 8747
SWIDTH 954 0
DWIDTH 18 0
BBX 18 19 0 -1
BITMAP
000000
000000
010000
00c600
00e900
010900
020600
020000
010000
009000
024400
082200
502300
642500
21c000
000000
000000
000000
000000
ENDCHAR
STARTCHAR 222c
ENCODING 8748
SWIDTH 954 0
DWIDTH 18 0
BBX 18 19 0 -1
BITMAP
000000
000000
000000
000000
020000
050000
048000
084000
102000
501000
200800
000400
000200
000100
000000
000000
000000
000000
000000
ENDCHAR
STARTCHAR 222d
ENCODING 8749
SWIDTH 954 0
DWIDTH 18 0
BBX 18 19 0 -1
BITMAP
000000
000000
000000
000000
020400
051200
048800
084000
102000
501000
200800
000400
000200
000100
000000
000000
000000
000000
000000
ENDCHAR
STARTCHAR 222e
ENCODING 8750
SWIDTH 954 0
DWIDTH 18 0
BBX 18 19 0 -1
BITMAP
000000
000000
000000
000c00
021200
051200
048c00
084000
102000
501000
200800
000400
000200
000100
000000
000000
000000
000000
000000
ENDCHAR
STARTCHAR 222f
ENCODING 8751
SWIDTH 954 0
DWIDTH 18 0
BBX 18 19 0 -1
BITMAP
000000
000000
100600
08f800
080800
080800
100e00
10f800
100800
100800
100800
140800
14f800
190e00
188b00
087000
000000
000000
000000
ENDCHAR
STARTCHAR 2230
ENCODING 8752
SWIDTH 954 0
DWIDTH 18 0
BBX 18 19 0 -1
BITMAP
000000
000200
200900
100c00
11f000
101000
201000
201c00
21f000
201000
201000
281000
29f000
321c00
311600
10e000
000000
000000
000000
ENDCHAR
STARTCHAR 2231
ENCODING 8753
SWIDTH 954 0
DWIDTH 18 0
BBX 18 19 0 -1
BITMAP
000000
000600
200900
100900
11f600
101000
201000
201c00
21f000
201000
201000
281000
29f000
321c00
311600
10e000
000000
000000
000000
ENDCHAR
STARTCHAR 2232
ENCODING 8754
SWIDTH 954 0
DWIDTH 18 0
BBX 18 19 0 -1
BITMAP
000000
00c000
006000
084c00
07f000
004000
044000
084c00
07f000
004000
004000
004000
0fe000
105c00
084600
078000
000000
000000
000000
ENDCHAR
STARTCHAR 2233
ENCODING 8755
SWIDTH 954 0
DWIDTH 18 0
BBX 18 19 0 -1
BITMAP
000000
000000
004000
09e000
0e4000
048000
008800
010c00
010800
1fc800
243800
440c00
481300
501100
202000
004000
010000
000000
000000
ENDCHAR
STARTCHAR 2234
ENCODING 8756
SWIDTH 954 0
DWIDTH 18 0
BBX 18 19 0 -1
BITMAP
000000
0c0000
060000
058800
3e0400
040600
040a00
1c0000
260000
240000
240000
280800
180400
080400
080c00
07f800
000000
000000
000000
ENDCHAR
STARTCHAR 2235
ENCODING 8757
SWIDTH 954 0
DWIDTH 18 0
BBX 18 19 0 -1
BITMAP
000000
00c000
006000
004000
184000
09f800
0e4400
088200
148100
148100
250100
230100
220200
250200
180c00
003000
000000
000000
000000
ENDCHAR
STARTCHAR 2236
ENCODING 8758
SWIDTH 954 0
DWIDTH 18 0
BBX 18 19 0 -1
BITMAP
000000
018000
00c000
008000
090000
070000
01c000
0a0000
0a0000
061000
05c800
040800
040800
040800
021000
01e000
000000
000000
000000
ENDCHAR
STARTCHAR 2237
ENCODING 8759
SWIDTH 954 0
DWIDTH 18 0
BBX 18 19 0 -1
BITMAP
000000
000000
000000
000000
000000
008000
0c4000
043800
02c400
030400
1d0400
093800
008000
008000
00c000
004000
004000
000000
000000
ENDCHAR
STARTCHAR 2238
ENCODING 8760
SWIDTH 954 0
DWIDTH 18 0
BBX 18 19 0 -1
BITMAP
000000
010000
00c000
184000
081c00
046200
058100
060100
5a4200
211c00
010000
010000
008000
008000
00c000
004000
004000
000000
000000
ENDCHAR
STARTCHAR 2239
ENCODING 8761
SWIDTH 954 0
DWIDTH 18 0
BBX 18 19 0 -1
BITMAP
000000
000000
000000
000000
000000
004000
04a000
04f000
052800
092400
0b2400
0d2400
052400
04a800
047000
008000
010000
000000
000000
ENDCHAR
STARTCHAR 223a
ENCODING 8762
SWIDTH 954 0
DWIDTH 18 0
BBX 18 19 0 -1
BITMAP
000000
00c000
002000
202000
10f800
132400
222200
242200
282200
282200
302200
322200
112400
10f800
004000
008000
020000
000000
000000
ENDCHAR
STARTCHAR 223b
ENCODING 8763
SWIDTH 954 0
DWIDTH 18 0
BBX 18 19 0 -1
BITMAP
000000
000000
000000
000000
000000
018000
008000
009800
00e000
008000
008000
008000
0f8000
10e000
109800
0f0000
000000
000000
000000
ENDCHAR
STARTCHAR 223c
ENCODING 8764
SWIDTH 954 0
DWIDTH 18 0
BBX 18 19 0 -1
BITMAP
000000
018000
00c000
008000
009800
00f000
008000
008000
008000
008000
008000
0f8000
10e000
209800
108c00
0f0000
000000
000000
000000
ENDCHAR
STARTCHAR 223d
ENCODING 8765
SWIDTH 954 0
DWIDTH 18 0
BBX 18 19 0 -1
BITMAP
000000
030000
00c000
036000
080000
080000
080000
100000
11f000
160800
180400
100400
000400
000800
003000
01c000
000000
000000
000000
ENDCHAR
STARTCHAR 223e
ENCODING 8766
SWIDTH 954 0
DWIDTH 18 0
BBX 18 19 0 -1
BITMAP
000000
000000
087000
048800
048800
090800
090800
090800
0a0800
0a0800
0a0800
0c0800
041000
001000
002000
004000
008000
000000
000000
ENDCHAR
STARTCHAR 223f
ENCODING 8767
SWIDTH 954 0
DWIDTH 18 0
BBX 18 19 0 -1
BITMAP
000000
002000
07f000
022000
004000
008000
010000
03f800
060400
080200
100200
200200
01c200
022400
023800
01e000
000000
000000
000000
ENDCHAR
STARTCHAR 2240
ENCODING 8768
SWIDTH 954 0
DWIDTH 18 0
BBX 18 19 0 -1
BITMAP
000000
0c0000
040000
040000
0e7000
788800
090800
0a0800
0c0800
081000
181000
181000
281100
281200
480c00
080000
000000
000000
000000
ENDCHAR
STARTCHAR 2241
ENCODING 8769
SWIDTH 954 0
DWIDTH 18 0
BBX 18 19 0 -1
BITMAP
000000
002000
07f000
022000
004000
008000
010000
03f800
060400
080200
100200
200200
000200
000400
001800
00e000
000000
000000
000000
ENDCHAR
STARTCHAR 2242
ENCODING 8770
SWIDTH 954 0
DWIDTH 18 0
BBX 18 19 0 -1
BITMAP
000000
000000
000000
000000
000000
020000
020000
030000
0e7000
038800
020400
060400
0a0400
120800
022000
020000
000000
000000
000000
ENDCHAR
STARTCHAR 2243
ENCODING 8771
SWIDTH 954 0
DWIDTH 18 0
BBX 18 19 0 -1
BITMAP
000000
0c0000
040000
040000
0e0000
787000
098c00
0a0200
0c0200
180100
180100
280200
680200
480c00
083000
080000
000000
000000
000000
ENDCHAR
STARTCHAR 2244
ENCODING 8772
SWIDTH 954 0
DWIDTH 18 0
BBX 18 19 0 -1
BITMAP
000000
000000
004000
07e000
024000
008000
01f000
070800
090400
120200
120200
240200
24e200
291400
111800
00e000
000000
000000
000000
ENDCHAR
STARTCHAR 2245
ENCODING 8773
SWIDTH 954 0
DWIDTH 18 0
BBX 18 19 0 -1
BITMAP
000000
004000
07e000
024000
008000
01f000
060800
080400
118400
224400
025800
07e000
080000
161c00
214200
618300
000000
000000
000000
ENDCHAR
STARTCHAR 2246
ENCODING 8774
SWIDTH 954 0
DWIDTH 18 0
BBX 18 19 0 -1
BITMAP
000000
040000
028000
030000
3c0000
040000
080400
0f1c00
10e000
218000
028000
048000
088000
080000
080000
07f800
000000
000000
000000
ENDCHAR
STARTCHAR 2247
ENCODING 8775
SWIDTH 954 0
DWIDTH 18 0
BBX 18 19 0 -1
BITMAP
000000
008000
00c000
008000
010000
020000
020000
040000
080000
0b8000
144100
184100
304200
204200
604400
403800
000000
000000
000000
ENDCHAR
STARTCHAR 2248
ENCODING 8776
SWIDTH 954 0
DWIDTH 18 0
BBX 18 19 0 -1
BITMAP
000000
000000
000000
000000
000000
000000
000800
1ffc00
000800
001000
01a000
00c000
008000
008000
010000
020000
000000
000000
000000
ENDCHAR
STARTCHAR 2249
ENCODING 8777
SWIDTH 954 0
DWIDTH 18 0
BBX 18 19 0 -1
BITMAP
000000
000000
000000
000200
3fff00
000200
000400
000800
01b000
00c000
008000
008000
010000
010000
020000
040000
000000
000000
000000
ENDCHAR
STARTCHAR 224a
ENCODING 8778
SWIDTH 954 0
DWIDTH 18 0
BBX 18 19 0 -1
BITMAP
000000
000000
000000
000000
000000
000000
003000
002000
004000
008000
038000
0c8000
008000
008000
008000
008000
000000
000000
000000
ENDCHAR
STARTCHAR 224b
ENCODING 8779
SWIDTH 954 0
DWIDTH 18 0
BBX 18 19 0 -1
BITMAP
000000
000000
000c00
000800
001000
002000
004000
00c000
014000
064000
184000
004000
004000
004000
004000
004000
000000
000000
000000
ENDCHAR
STARTCHAR 224c
ENCODING 8780
SWIDTH 954 0
DWIDTH 18 0
BBX 18 19 0 -1
BITMAP
000000
000000
000000
000000
000000
008000
00c000
088800
07fc00
040800
040800
001000
001000
002000
004000
010000
000000
000000
000000
ENDCHAR
STARTCHAR 224d
ENCODING 8781
SWIDTH 954 0
DWIDTH 18 0
BBX 18 19 0 -1
BITMAP
000000
018000
00c000
008000
208400
1ffe00
100400
100400
180400
100800
000800
000800
001000
002000
00c000
030000
000000
000000
000000
ENDCHAR
STARTCHAR 224e
ENCODING 8782
SWIDTH 954 0
DWIDTH 18 0
BBX 18 19 0 -1
BITMAP
000000
000000
000000
000000
000000
000000
000000
001000
0ff800
008000
008000
008000
008800
1ffc00
000000
000000
000000
000000
000000
ENDCHAR
STARTCHAR 224f
ENCODING 8783
SWIDTH 954 0
DWIDTH 18 0
BBX 18 19 0 -1
BITMAP
000000
000000
000000
000800
1ffc00
008000
008000
008000
008000
008000
008000
008000
008200
7fff00
000000
000000
000000
000000
000000
ENDCHAR
STARTCHAR 2250
ENCODING 8784
SWIDTH 954 0
DWIDTH 18 0
BBX 18 19 0 -1
BITMAP
000000
000000
000000
000000
000000
00c000
004000
004800
1ffc00
014000
014000
024000
044000
084000
11c000
004000
000000
000000
000000
ENDCHAR
STARTCHAR 2251
ENCODING 8785
SWIDTH 954 0
DWIDTH 18 0
BBX 18 19 0 -1
BITMAP
000000
006000
003000
002000
002200
3fff00
00a000
00a000
012000
012000
022000
042000
082000
102000
20e000
002000
000000
000000
000000
ENDCHAR
STARTCHAR 2252
ENCODING 8786
SWIDTH 954 0
DWIDTH 18 0
BBX 18 19 0 -1
BITMAP
000000
030000
018000
010000
010400
3ffe00
010400
010400
010400
020400
020400
020400
040800
080800
107800
201000
000000
000000
000000
ENDCHAR
STARTCHAR 2253
ENCODING 8787
SWIDTH 954 0
DWIDTH 18 0
BBX 18 19 0 -1
BITMAP
000000
030200
018900
010400
010400
3ffe00
010400
010400
010400
020400
020400
020400
040800
080800
107800
201000
000000
000000
000000
ENDCHAR
STARTCHAR 2254
ENCODING 8788
SWIDTH 954 0
DWIDTH 18 0
BBX 18 19 0 -1
BITMAP
000000
000000
030000
010000
010800
01fc00
3f0000
008000
008000
008200
00ff00
3f8000
004000
004000
004000
006000
004000
000000
000000
ENDCHAR
STARTCHAR 2255
ENCODING 8789
SWIDTH 954 0
DWIDTH 18 0
BBX 18 19 0 -1
BITMAP
000000
000200
030900
010400
010800
01fc00
3f0000
008000
008000
008200
00ff00
3f8000
004000
004000
004000
006000
004000
000000
000000
ENDCHAR
STARTCHAR 2256
ENCODING 8790
SWIDTH 954 0
DWIDTH 18 0
BBX 18 19 0 -1
BITMAP
000000
000000
010000
018400
01fe00
020400
020400
040800
080800
101000
001000
002000
004000
008000
030000
0c0000
000000
000000
000000
ENDCHAR
STARTCHAR 2257
ENCODING 8791
SWIDTH 954 0
DWIDTH 18 0
BBX 18 19 0 -1
BITMAP
000000
000200
020900
030400
03f800
040800
040800
081000
101000
202000
002000
004000
008000
010000
060000
180000
000000
000000
000000
ENDCHAR
STARTCHAR 2258
ENCODING 8792
SWIDTH 954 0
DWIDTH 18 0
BBX 18 19 0 -1
BITMAP
000000
040000
060000
040000
080200
0fff00
102000
102000
202000
402000
002000
004000
004000
008000
030000
0c0000
000000
000000
000000
ENDCHAR
STARTCHAR 2259
ENCODING 8793
SWIDTH 954 0
DWIDTH 18 0
BBX 18 19 0 -1
BITMAP
000000
040400
061200
040800
080200
0fff00
102000
102000
202000
402000
002000
004000
004000
008000
030000
0c0000
000000
000000
000000
ENDCHAR
STARTCHAR 225a
ENCODING 8794
SWIDTH 954 0
DWIDTH 18 0
BBX 18 19 0 -1
BITMAP
000000
000000
000000
000400
1ffe00
000400
000400
000400
000400
000400
000400
000400
000400
1ffc00
000400
000000
000000
000000
000000
ENDCHAR
STARTCHAR 225b
ENCODING 8795
SWIDTH 954 0
DWIDTH 18 0
BBX 18 19 0 -1
BITMAP
000000
000200
000900
000400
3ffc00
000800
000800
000800
000800
000800
000800
000800
000800
3ff800
000800
000000
000000
000000
000000
ENDCHAR
STARTCHAR 225c
ENCODING 8796
SWIDTH 954 0
DWIDTH 18 0
BBX 18 19 0 -1
BITMAP
000000
003000
0c1800
061000
041000
041200
7fff00
041000
041000
041000
041000
001000
002000
002000
00c000
030000
000000
000000
000000
ENDCHAR
STARTCHAR 225d
ENCODING 8797
SWIDTH 954 0
DWIDTH 18 0
BBX 18 19 0 -1
BITMAP
000000
003200
0c1900
061400
041000
041200
7fff00
041000
041000
041000
041000
001000
002000
002000
00c000
030000
000000
000000
000000
ENDCHAR
STARTCHAR 225e
ENCODING 8798
SWIDTH 954 0
DWIDTH 18 0
BBX 18 19 0 -1
BITMAP
000000
000000
180000
060000
010000
000200
300200
0c0400
020400
000800
001000
002000
004000
018000
160000
080000
000000
000000
000000
ENDCHAR
STARTCHAR 225f
ENCODING 8799
SWIDTH 954 0
DWIDTH 18 0
BBX 18 19 0 -1
BITMAP
000000
000200
180900
060400
010000
000200
300200
0c0400
020400
000800
001000
002000
004000
018000
160000
080000
000000
000000
000000
ENDCHAR
STARTCHAR 2260
ENCODING 8800
SWIDTH 954 0
DWIDTH 18 0
BBX 18 19 0 -1
BITMAP
000000
000000
000000
001000
1ff800
001000
001000
002000
002000
004000
004000
00a000
011000
020800
0c0400
300200
000000
000000
000000
ENDCHAR
STARTCHAR 2261
ENCODING 8801
SWIDTH 954 0
DWIDTH 18 0
BBX 18 19 0 -1
BITMAP
000000
000200
000900
001400
1ff800
001000
001000
002000
002000
004000
004000
00a000
011000
020800
0c0400
300200
000000
000000
000000
ENDCHAR
STARTCHAR 2262
ENCODING 8802
SWIDTH 954 0
DWIDTH 18 0
BBX 18 19 0 -1
BITMAP
000000
000000
0c0000
060000
040400
047e00
078400
7c0800
241000
042000
040000
040000
040000
040000
03fc00
000000
000000
000000
000000
ENDCHAR
STARTCHAR 2263
ENCODING 8803
SWIDTH 954 0
DWIDTH 18 0
BBX 18 19 0 -1
BITMAP
000000
000200
0c0900
060400
040400
047e00
078400
7c0800
241000
042000
040000
040000
040000
040000
03fc00
000000
000000
000000
000000
ENDCHAR
STARTCHAR 2264
ENCODING 8804
SWIDTH 954 0
DWIDTH 18 0
BBX 18 19 0 -1
BITMAP
000000
000000
000000
000400
200600
100400
080400
0c0400
040800
000800
001000
001000
002000
004000
018000
060000
000000
000000
000000
ENDCHAR
STARTCHAR 2265
ENCODING 8805
SWIDTH 954 0
DWIDTH 18 0
BBX 18 19 0 -1
BITMAP
000000
000200
000900
000400
400800
200c00
100800
180800
081000
001000
002000
002000
004000
008000
030000
0c0000
000000
000000
000000
ENDCHAR
STARTCHAR 2266
ENCODING 8806
SWIDTH 954 0
DWIDTH 18 0
BBX 18 19 0 -1
BITMAP
000000
000000
010000
018400
01fe00
020400
020400
050800
088800
105000
003000
002000
004000
008000
030000
0c0000
000000
000000
000000
ENDCHAR
STARTCHAR 2267
ENCODING 8807
SWIDTH 954 0
DWIDTH 18 0
BBX 18 19 0 -1
BITMAP
000000
000200
020900
030400
03f800
040800
040800
0a1000
111000
20a000
006000
004000
008000
010000
060000
180000
000000
000000
000000
ENDCHAR
STARTCHAR 2268
ENCODING 8808
SWIDTH 954 0
DWIDTH 18 0
BBX 18 19 0 -1
BITMAP
000000
000000
001000
00f800
1f8000
008000
008000
008200
7fff00
008000
008000
008000
010000
010000
060000
180000
000000
000000
000000
ENDCHAR
STARTCHAR 2269
ENCODING 8809
SWIDTH 954 0
DWIDTH 18 0
BBX 18 19 0 -1
BITMAP
000000
000000
001000
00f000
1f8400
009200
008800
008200
7fff00
008000
008000
008000
010000
010000
060000
180000
000000
000000
000000
ENDCHAR
STARTCHAR 226a
ENCODING 8810
SWIDTH 954 0
DWIDTH 18 0
BBX 18 19 0 -1
BITMAP
000000
000000
000000
000000
000000
000000
010800
110c00
088800
088800
041000
001000
002000
004000
008000
020000
000000
000000
000000
ENDCHAR
STARTCHAR 226b
ENCODING 8811
SWIDTH 954 0
DWIDTH 18 0
BBX 18 19 0 -1
BITMAP
000000
000000
000000
020400
410600
210400
118400
188400
080800
000800
001000
001000
002000
004000
018000
060000
000000
000000
000000
ENDCHAR
STARTCHAR 226c
ENCODING 8812
SWIDTH 954 0
DWIDTH 18 0
BBX 18 19 0 -1
BITMAP
000000
000200
000900
020400
410000
210400
118600
188400
080800
000800
001000
001000
002000
004000
018000
060000
000000
000000
000000
ENDCHAR
STARTCHAR 226d
ENCODING 8813
SWIDTH 954 0
DWIDTH 18 0
BBX 18 19 0 -1
BITMAP
000000
000000
000800
0ffc00
000000
000000
000200
3fff00
004000
004000
004000
004000
008000
008000
030000
0c0000
000000
000000
000000
ENDCHAR
STARTCHAR 226e
ENCODING 8814
SWIDTH 954 0
DWIDTH 18 0
BBX 18 19 0 -1
BITMAP
000000
000000
001000
1ff800
000200
000900
000400
7fff00
008000
008000
008000
008000
010000
010000
060000
180000
000000
000000
000000
ENDCHAR
STARTCHAR 226f
ENCODING 8815
SWIDTH 954 0
DWIDTH 18 0
BBX 18 19 0 -1
BITMAP
000000
060000
030000
020000
020000
020000
030000
02c000
022000
021800
020800
020000
020000
020000
020000
020000
020000
000000
000000
ENDCHAR
STARTCHAR 2270
ENCODING 8816
SWIDTH 954 0
DWIDTH 18 0
BBX 18 19 0 -1
BITMAP
000000
060000
030000
020400
021200
020800
030000
02c000
022000
021800
020800
020000
020000
020000
020000
020000
020000
000000
000000
ENDCHAR
STARTCHAR 2271
ENCODING 8817
SWIDTH 954 0
DWIDTH 18 0
BBX 18 19 0 -1
BITMAP
000000
00c000
006000
004000
004000
004200
3fff00
004000
004000
004000
004000
004000
008000
008000
030000
0c0000
000000
000000
000000
ENDCHAR
STARTCHAR 2272
ENCODING 8818
SWIDTH 954 0
DWIDTH 18 0
BBX 18 19 0 -1
BITMAP
000000
000000
000000
000800
1ffc00
000000
000000
000000
000000
000000
000000
000000
000200
7fff00
000000
000000
000000
000000
000000
ENDCHAR
STARTCHAR 2273
ENCODING 8819
SWIDTH 954 0
DWIDTH 18 0
BBX 18 19 0 -1
BITMAP
000000
000000
000000
000800
1ffc00
000800
000800
001000
061000
01a000
006000
007000
009800
010800
060000
180000
000000
000000
000000
ENDCHAR
STARTCHAR 2274
ENCODING 8820
SWIDTH 954 0
DWIDTH 18 0
BBX 18 19 0 -1
BITMAP
000000
020000
018000
00c000
001000
1ff800
001000
002000
004000
008000
01e000
029800
0c8600
308200
008000
008000
008000
000000
000000
ENDCHAR
STARTCHAR 2275
ENCODING 8821
SWIDTH 954 0
DWIDTH 18 0
BBX 18 19 0 -1
BITMAP
000000
000000
000800
000c00
000800
000800
001000
001000
002000
002000
004000
008000
010000
020000
0c0000
300000
000000
000000
000000
ENDCHAR
STARTCHAR 2276
ENCODING 8822
SWIDTH 954 0
DWIDTH 18 0
BBX 18 19 0 -1
BITMAP
000000
000000
000000
000000
042000
061000
041000
040800
080800
080400
080400
100400
100600
200200
400200
000000
000000
000000
000000
ENDCHAR
STARTCHAR 2277
ENCODING 8823
SWIDTH 954 0
DWIDTH 18 0
BBX 18 19 0 -1
BITMAP
000000
000000
000200
000900
042400
061000
041000
040800
080800
080400
080400
100400
100600
200200
400200
000000
000000
000000
000000
ENDCHAR
STARTCHAR 2278
ENCODING 8824
SWIDTH 954 0
DWIDTH 18 0
BBX 18 19 0 -1
BITMAP
000000
000600
000900
000900
042600
061000
041000
040800
080800
080400
080400
100400
100600
200200
400200
000000
000000
000000
000000
ENDCHAR
STARTCHAR 2279
ENCODING 8825
SWIDTH 954 0
DWIDTH 18 0
BBX 18 19 0 -1
BITMAP
000000
000000
300000
180000
100800
101c00
11e000
1e0000
100000
100000
100000
100000
100000
100000
0ffc00
000000
000000
000000
000000
ENDCHAR
STARTCHAR 227a
ENCODING 8826
SWIDTH 954 0
DWIDTH 18 0
BBX 18 19 0 -1
BITMAP
000000
000200
300900
180400
100800
101c00
11e000
1e0000
100000
100000
100000
100000
100000
100000
0ffc00
000000
000000
000000
000000
ENDCHAR
STARTCHAR 227b
ENCODING 8827
SWIDTH 954 0
DWIDTH 18 0
BBX 18 19 0 -1
BITMAP
000000
000600
600900
300900
201600
203800
23c000
3c0000
200000
200000
200000
200000
200000
200000
1ff800
000000
000000
000000
000000
ENDCHAR
STARTCHAR 227c
ENCODING 8828
SWIDTH 954 0
DWIDTH 18 0
BBX 18 19 0 -1
BITMAP
000000
000000
000000
000400
3ffe00
000400
000400
000400
000800
000800
000800
001000
002000
004000
018000
060000
000000
000000
000000
ENDCHAR
STARTCHAR 227d
ENCODING 8829
SWIDTH 954 0
DWIDTH 18 0
BBX 18 19 0 -1
BITMAP
000000
000200
000900
000400
3ffe00
000400
000400
000400
000800
000800
000800
001000
002000
004000
018000
060000
000000
000000
000000
ENDCHAR
STARTCHAR 227e
ENCODING 8830
SWIDTH 954 0
DWIDTH 18 0
BBX 18 19 0 -1
BITMAP
000000
000600
000900
000900
3ffe00
000400
000400
000400
000800
000800
000800
001000
002000
004000
018000
060000
000000
000000
000000
ENDCHAR
STARTCHAR 2321
ENCODING 8993
SWIDTH 954 0
DWIDTH 18 0
BBX 18 19 0 -1
BITMAP
000000
000000
000000
020000
030000
048000
088000
084000
102000
701000
200800
000800
000400
000200
000100
000000
000000
000000
000000
ENDCHAR
STARTCHAR 2322
ENCODING 8994
SWIDTH 954 0
DWIDTH 18 0
BBX 18 19 0 -1
BITMAP
000000
000000
000000
020400
031200
048800
088000
084000
102000
701000
200800
000800
000400
000200
000100
000000
000000
000000
000000
ENDCHAR
STARTCHAR 2323
ENCODING 8995
SWIDTH 954 0
DWIDTH 18 0
BBX 18 19 0 -1
BITMAP
000000
000000
000000
020c00
031200
049200
088c00
084000
102000
701000
200800
000800
000400
000200
000100
000000
000000
000000
000000
ENDCHAR
STARTCHAR 2324
ENCODING 8996
SWIDTH 954 0
DWIDTH 18 0
BBX 18 19 0 -1
BITMAP
000000
018000
00c000
008000
008400
3ffe00
008000
008000
089000
088800
108400
108400
208200
408200
038000
008000
000000
000000
000000
ENDCHAR
STARTCHAR 2325
ENCODING 8997
SWIDTH 954 0
DWIDTH 18 0
BBX 18 19 0 -1
BITMAP
000000
018200
00c900
008400
008400
3ffe00
008000
008000
089000
088800
108400
108400
208200
408200
038000
008000
000000
000000
000000
ENDCHAR
STARTCHAR 2326
ENCODING 8998
SWIDTH 954 0
DWIDTH 18 0
BBX 18 19 0 -1
BITMAP
000000
018600
00c900
008900
008600
3ffe00
008000
008000
089000
088800
108400
108400
208200
408200
038000
008000
000000
000000
000000
ENDCHAR
STARTCHAR 2327
ENCODING 8999
SWIDTH 954 0
DWIDTH 18 0
BBX 18 19 0 -1
BITMAP
000000
000000
000000
000400
7ffe00
000400
000800
000800
001000
042000
024000
018000
008000
00c000
004000
000000
000000
000000
000000
ENDCHAR
STARTCHAR 2328
ENCODING 9000
SWIDTH 954 0
DWIDTH 18 0
BBX 18 19 0 -1
BITMAP
000000
000000
070000
00e000
001c00
000400
000000
070000
00e000
001800
000000
000000
1e0000
01e000
001c00
000400
000000
000000
000000
ENDCHAR
STARTCHAR 2329
ENCODING 9001
SWIDTH 954 0
DWIDTH 18 0
BBX 18 19 0 -1
BITMAP
000000
008000
00c000
008000
008000
010000
010000
010000
020800
020400
020400
040200
047e00
7f8100
200100
000000
000000
000000
000000
ENDCHAR
STARTCHAR 232a
ENCODING 9002
SWIDTH 954 0
DWIDTH 18 0
BBX 18 19 0 -1
BITMAP
000000
000000
000800
000c00
000800
000800
021000
019000
006000
003000
005800
008c00
010000
020000
0c0000
300000
000000
000000
000000
ENDCHAR
STARTCHAR 232b
ENCODING 9003
SWIDTH 954 0
DWIDTH 18 0
BBX 18 19 0 -1
BITMAP
000000
000000
001000
1ff800
020000
020000
020000
020400
7ffe00
020000
020000
020000
020000
020000
01fc00
000000
000000
000000
000000
ENDCHAR
STARTCHAR 232c
ENCODING 9004
SWIDTH 954 0
DWIDTH 18 0
BBX 18 19 0 -1
BITMAP
000000
000000
000000
000000
000000
040000
040000
023c00
03c800
1e1000
012000
010000
010000
008000
008000
008000
000000
000000
000000
ENDCHAR
STARTCHAR 232d
ENCODING 9005
SWIDTH 954 0
DWIDTH 18 0
BBX 18 19 0 -1
BITMAP
000000
000000
180000
080000
080400
047e00
078400
7c0800
040800
021000
022000
020000
010000
010000
010000
018000
010000
000000
000000
ENDCHAR
STARTCHAR 232e
ENCODING 9006
SWIDTH 954 0
DWIDTH 18 0
BBX 18 19 0 -1
BITMAP
000000
000000
000000
000000
000000
000000
000000
002000
0ff000
002000
002000
004000
004000
3ffc00
000000
000000
000000
000000
000000
ENDCHAR
STARTCHAR 232f
ENCODING 9007
SWIDTH 954 0
DWIDTH 18 0
BBX 18 19 0 -1
BITMAP
000000
000000
000000
001000
0ff800
001000
001000
001000
001000
002000
002000
002000
002200
7fff00
000000
000000
000000
000000
000000
ENDCHAR
STARTCHAR 2330
ENCODING 9008
SWIDTH 954 0
DWIDTH 18 0
BBX 18 19 0 -1
BITMAP
000000
000000
000000
000000
000000
000000
001000
0ff800
001000
001000
07f000
001000
001000
0ff000
001000
000000
000000
000000
000000
ENDCHAR
STARTCHAR 2331
ENCODING 9009
SWIDTH 954 0
DWIDTH 18 0
BBX 18 19 0 -1
BITMAP
000000
000000
000000
000400
1ffe00
000400
000400
000400
0ffc00
000400
000400
000400
000400
1ffc00
000400
000000
000000
000000
000000
ENDCHAR
STARTCHAR 2332
ENCODING 9010
SWIDTH 954 0
DWIDTH 18 0
BBX 18 19 0 -1
BITMAP
000000
000000
001000
1ff800
000000
000000
000400
7ffe00
000400
000400
000800
000800
001000
002000
00c000
070000
000000
000000
000000
ENDCHAR
STARTCHAR 2333
ENCODING 9011
SWIDTH 954 0
DWIDTH 18 0
BBX 18 19 0 -1
BITMAP
000000
000000
003000
181800
0c1000
081000
081000
081000
081000
081000
081000
002000
002000
004000
008000
020000
000000
000000
000000
ENDCHAR
STARTCHAR 2334
ENCODING 9012
SWIDTH 954 0
DWIDTH 18 0
BBX 18 19 0 -1
BITMAP
000000
000000
00c000
006000
0c4000
044000
044000
044100
044100
044200
084200
084400
084800
105000
20e000
404000
000000
000000
000000
ENDCHAR
STARTCHAR 2335
ENCODING 9013
SWIDTH 954 0
DWIDTH 18 0
BBX 18 19 0 -1
BITMAP
000000
000000
0c0000
060000
040000
040000
040200
040200
040400
040400
040800
041000
042000
04c000
0f0000
040000
000000
000000
000000
ENDCHAR
STARTCHAR 2336
ENCODING 9014
SWIDTH 954 0
DWIDTH 18 0
BBX 18 19 0 -1
BITMAP
000000
000000
000000
000400
1ffe00
100400
100400
100400
100400
100400
100400
100400
100400
1ffe00
100000
000000
000000
000000
000000
ENDCHAR
STARTCHAR 2337
ENCODING 9015
SWIDTH 954 0
DWIDTH 18 0
BBX 18 19 0 -1
BITMAP
000000
000000
000000
000000
000000
000000
080800
07fc00
040800
040800
060800
041000
001000
002000
004000
010000
000000
000000
000000
ENDCHAR
STARTCHAR 2338
ENCODING 9016
SWIDTH 954 0
DWIDTH 18 0
BBX 18 19 0 -1
BITMAP
000000
000000
000000
200400
1ffe00
100400
100400
100400
180400
100400
000800
000800
001000
002000
00c000
030000
000000
000000
000000
ENDCHAR
STARTCHAR 2339
ENCODING 9017
SWIDTH 954 0
DWIDTH 18 0
BBX 18 19 0 -1
BITMAP
000000
00c000
006000
004000
004400
3ffe00
004000
0c4000
064000
044000
044200
7fff00
004000
004000
004000
004000
004000
000000
000000
ENDCHAR
STARTCHAR 233a
ENCODING 9018
SWIDTH 954 0
DWIDTH 18 0
BBX 18 19 0 -1
BITMAP
000000
000000
000000
000400
3ffe00
000400
008800
00b000
00c000
008000
008000
008000
008200
7fff00
000000
000000
000000
000000
000000
ENDCHAR
STARTCHAR 233b
ENCODING 9019
SWIDTH 954 0
DWIDTH 18 0
BBX 18 19 0 -1
BITMAP
000000
000000
000000
000400
7ffe00
000400
000400
000400
3ff800
000800
001000
001000
002000
004000
018000
060000
000000
000000
000000
ENDCHAR
STARTCHAR 233c
ENCODING 9020
SWIDTH 954 0
DWIDTH 18 0
BBX 18 19 0 -1
BITMAP
000000
000000
000000
200000
180000
060200
030200
000400
000400
000800
001000
002000
004000
018000
160000
080000
000000
000000
000000
ENDCHAR
STARTCHAR 233d
ENCODING 9021
SWIDTH 954 0
DWIDTH 18 0
BBX 18 19 0 -1
BITMAP
000000
018200
00c900
008400
208400
1ffe00
100400
100400
180400
100800
000800
000800
001000
002000
00c000
030000
000000
000000
000000
ENDCHAR
STARTCHAR 233e
ENCODING 9022
SWIDTH 954 0
DWIDTH 18 0
BBX 18 19 0 -1
BITMAP
000000
000000
000000
000000
000000
010000
010000
011000
1ff800
011000
011000
021000
021000
041000
08e000
102000
000000
000000
000000
ENDCHAR
STARTCHAR 233f
ENCODING 9023
SWIDTH 954 0
DWIDTH 18 0
BBX 18 19 0 -1
BITMAP
000000
000000
000000
000000
000000
040000
060000
040800
07fc00
084000
084000
104000
008000
008000
010000
040000
000000
000000
000000
ENDCHAR
STARTCHAR 2340
ENCODING 9024
SWIDTH 954 0
DWIDTH 18 0
BBX 18 19 0 -1
BITMAP
000000
000000
000000
000000
000000
008000
008000
014000
014000
022000
022000
07f000
041000
080800
080800
1c1c00
000000
000000
000000
ENDCHAR
STARTCHAR 2341
ENCODING 9025
SWIDTH 954 0
DWIDTH 18 0
BBX 18 19 0 -1
BITMAP
000000
000000
000000
000000
000000
0ff000
041000
041000
040000
040000
07e000
041000
040800
040800
041000
0fe000
000000
000000
000000
ENDCHAR
STARTCHAR 2342
ENCODING 9026
SWIDTH 954 0
DWIDTH 18 0
BBX 18 19 0 -1
BITMAP
000000
000000
000000
000000
000000
0fe000
041000
040800
040800
041000
07e000
041000
040800
040800
041000
0fe000
000000
000000
000000
ENDCHAR
STARTCHAR 2343
ENCODING 9027
SWIDTH 954 0
DWIDTH 18 0
BBX 18 19 0 -1
BITMAP
000000
000000
000000
000000
000000
0ff800
040800
040800
040000
040000
040000
040000
040000
040000
040000
0e0000
000000
000000
000000
ENDCHAR
STARTCHAR 2344
ENCODING 9028
SWIDTH 954 0
DWIDTH 18 0
BBX 18 19 0 -1
BITMAP
000000
000000
000000
000000
000000
01f800
009000
009000
011000
011000
021000
021000
041000
041000
081000
1ffc00
100400
000000
000000
ENDCHAR
STARTCHAR 2345
ENCODING 9029
SWIDTH 954 0
DWIDTH 18 0
BBX 18 19 0 -1
BITMAP
000000
000000
000000
000000
000000
0ff800
040800
040000
040000
041000
07f000
041000
040000
040000
040800
0ff800
000000
000000
000000
ENDCHAR
STARTCHAR 2346
ENCODING 9030
SWIDTH 954 0
DWIDTH 18 0
BBX 18 19 0 -1
BITMAP
000000
033000
033000
000000
000000
0ff800
040800
040000
040000
041000
07f000
041000
040000
040000
040800
0ff800
000000
000000
000000
ENDCHAR
STARTCHAR 2347
ENCODING 9031
SWIDTH 954 0
DWIDTH 18 0
BBX 18 19 0 -1
BITMAP
000000
000000
000000
000000
000000
008000
188c00
0c9800
049000
049000
03e000
049000
049000
088800
088800
3c9e00
000000
000000
000000
ENDCHAR
STARTCHAR 2348
ENCODING 9032
SWIDTH 954 0
DWIDTH 18 0
BBX 18 19 0 -1
BITMAP
000000
000000
000000
000000
000000
03e000
041000
080800
000800
001000
00e000
001000
000800
080800
041000
03e000
000000
000000
000000
ENDCHAR
STARTCHAR 2349
ENCODING 9033
SWIDTH 954 0
DWIDTH 18 0
BBX 18 19 0 -1
BITMAP
000000
000000
000000
000000
000000
0e3800
041000
043000
045000
045000
049000
051000
051000
061000
041000
0e3800
000000
000000
000000
ENDCHAR
STARTCHAR 234a
ENCODING 9034
SWIDTH 954 0
DWIDTH 18 0
BBX 18 19 0 -1
BITMAP
000000
063000
063000
01c000
000000
0e3800
041000
043000
045000
045000
049000
051000
051000
061000
041000
0e3800
000000
000000
000000
ENDCHAR
STARTCHAR 234b
ENCODING 9035
SWIDTH 954 0
DWIDTH 18 0
BBX 18 19 0 -1
BITMAP
000000
000000
000000
000000
000000
0e3800
045800
044000
048000
048000
07c000
042000
042000
041000
041000
0e3c00
000000
000000
000000
ENDCHAR
STARTCHAR 234c
ENCODING 9036
SWIDTH 954 0
DWIDTH 18 0
BBX 18 19 0 -1
BITMAP
000000
000000
000000
000000
000000
00fc00
004800
004800
008800
008800
008800
010800
010800
1a0800
1a0800
0c1c00
000000
000000
000000
ENDCHAR
STARTCHAR 234d
ENCODING 9037
SWIDTH 954 0
DWIDTH 18 0
BBX 18 19 0 -1
BITMAP
000000
000000
000000
000000
000000
0c1800
041000
041000
0a2800
0a2800
094800
094800
114400
108400
108400
380e00
000000
000000
000000
ENDCHAR
STARTCHAR 234e
ENCODING 9038
SWIDTH 954 0
DWIDTH 18 0
BBX 18 19 0 -1
BITMAP
000000
000000
000000
000000
000000
0e3800
041000
041000
041000
041000
07f000
041000
041000
041000
041000
0e3800
000000
000000
000000
ENDCHAR
STARTCHAR 234f
ENCODING 9039
SWIDTH 954 0
DWIDTH 18 0
BBX 18 19 0 -1
BITMAP
000000
000000
000000
000000
000000
03e000
041000
080800
080800
080800
080800
080800
080800
080800
041000
03e000
000000
000000
000000
ENDCHAR
STARTCHAR 2350
ENCODING 9040
SWIDTH 954 0
DWIDTH 18 0
BBX 18 19 0 -1
BITMAP
000000
000000
000000
000000
000000
0ff800
041000
041000
041000
041000
041000
041000
041000
041000
041000
0e3800
000000
000000
000000
ENDCHAR
STARTCHAR 2351
ENCODING 9041
SWIDTH 954 0
DWIDTH 18 0
BBX 18 19 0 -1
BITMAP
000000
000000
000000
000000
000000
0fe000
041000
040800
040800
040800
041000
07e000
040000
040000
040000
0e0000
000000
000000
000000
ENDCHAR
STARTCHAR 2352
ENCODING 9042
SWIDTH 954 0
DWIDTH 18 0
BBX 18 19 0 -1
BITMAP
000000
000000
000000
000000
000000
03e000
041000
080800
080800
080000
080000
080000
080800
080800
041000
03e000
000000
000000
000000
ENDCHAR
STARTCHAR 2353
ENCODING 9043
SWIDTH 954 0
DWIDTH 18 0
BBX 18 19 0 -1
BITMAP
000000
000000
000000
000000
000000
0ff800
088800
008000
008000
008000
008000
008000
008000
008000
008000
01c000
000000
000000
000000
ENDCHAR
STARTCHAR 2354
ENCODING 9044
SWIDTH 954 0
DWIDTH 18 0
BBX 18 19 0 -1
BITMAP
000000
000000
000000
000000
000000
1e3c00
041000
041000
022000
022000
024000
014000
018000
018000
190000
190000
0e0000
000000
000000
ENDCHAR
STARTCHAR 2355
ENCODING 9045
SWIDTH 954 0
DWIDTH 18 0
BBX 18 19 0 -1
BITMAP
000000
000000
000000
000000
000000
01c000
008000
03e000
049000
088800
088800
088800
049000
03e000
008000
01c000
000000
000000
000000
ENDCHAR
STARTCHAR 2356
ENCODING 9046
SWIDTH 954 0
DWIDTH 18 0
BBX 18 19 0 -1
BITMAP
000000
000000
000000
000000
000000
1e3c00
041000
022000
022000
014000
008000
014000
022000
022000
041000
1e3c00
000000
000000
000000
ENDCHAR
STARTCHAR 2357
ENCODING 9047
SWIDTH 954 0
DWIDTH 18 0
BBX 18 19 0 -1
BITMAP
000000
000000
000000
000000
000000
0e3800
041000
041000
041000
041000
041000
041000
041000
041000
041000
0ffc00
000400
000000
000000
ENDCHAR
STARTCHAR 2358
ENCODING 9048
SWIDTH 954 0
DWIDTH 18 0
BBX 18 19 0 -1
BITMAP
000000
000000
000000
000000
000000
0e3800
041000
041000
041000
041000
041000
03f000
001000
001000
001000
003800
000000
000000
000000
ENDCHAR
STARTCHAR 2359
ENCODING 9049
SWIDTH 954 0
DWIDTH 18 0
BBX 18 19 0 -1
BITMAP
000000
000000
000000
000000
000000
1ddc00
088800
088800
088800
088800
088800
088800
088800
088800
088800
1ffc00
000000
000000
000000
ENDCHAR
STARTCHAR 235a
ENCODING 9050
SWIDTH 954 0
DWIDTH 18 0
BBX 18 19 0 -1
BITMAP
000000
000000
000000
000000
000000
1ddc00
088800
088800
088800
088800
088800
088800
088800
088800
088800
1ffe00
000200
000000
000000
ENDCHAR
STARTCHAR 235b
ENCODING 9051
SWIDTH 954 0
DWIDTH 18 0
BBX 18 19 0 -1
BITMAP
000000
000000
000000
000000
000000
1f0000
120000
120000
020000
020000
03f000
020800
020400
020400
020800
07f000
000000
000000
000000
ENDCHAR
STARTCHAR 235c
ENCODING 9052
SWIDTH 954 0
DWIDTH 18 0
BBX 18 19 0 -1
BITMAP
000000
000000
000000
000000
000000
1c1c00
080800
080800
080800
080800
0f8800
084800
082800
082800
084800
1f9c00
000000
000000
000000
ENDCHAR
STARTCHAR 235d
ENCODING 9053
SWIDTH 954 0
DWIDTH 18 0
BBX 18 19 0 -1
BITMAP
000000
000000
000000
000000
000000
0e0000
040000
040000
040000
040000
07f000
040800
040400
040400
040800
0ff000
000000
000000
000000
ENDCHAR
STARTCHAR 235e
ENCODING 9054
SWIDTH 954 0
DWIDTH 18 0
BBX 18 19 0 -1
BITMAP
000000
000000
000000
000000
000000
03e000
041000
080800
000800
031800
04e800
000800
000800
080800
041000
03e000
000000
000000
000000
ENDCHAR
STARTCHAR 235f
ENCODING 9055
SWIDTH 954 0
DWIDTH 18 0
BBX 18 19 0 -1
BITMAP
000000
000000
000000
000000
000000
38f000
110800
120400
120400
120400
1e0400
120400
120400
120400
110800
38f000
000000
000000
000000
ENDCHAR
STARTCHAR 2360
ENCODING 9056
SWIDTH 954 0
DWIDTH 18 0
BBX 18 19 0 -1
BITMAP
000000
000000
000000
000000
000000
03f800
040800
080800
080800
040800
03f800
020800
040800
040800
040800
181c00
000000
000000
000000
ENDCHAR
STARTCHAR 2361
ENCODING 9057
SWIDTH 954 0
DWIDTH 18 0
BBX 18 19 0 -1
BITMAP
000000
000000
000000
000000
000000
000000
03c000
042000
0c1000
001000
01f000
061000
081000
081000
087000
079800
000000
000000
000000
ENDCHAR
STARTCHAR 2362
ENCODING 9058
SWIDTH 954 0
DWIDTH 18 0
BBX 18 19 0 -1
BITMAP
000000
000000
001000
03e000
040000
080000
0bc000
0c2000
081000
081000
081000
081000
081000
081000
042000
03c000
000000
000000
000000
ENDCHAR
STARTCHAR 2363
ENCODING 9059
SWIDTH 954 0
DWIDTH 18 0
BBX 18 19 0 -1
BITMAP
000000
000000
000000
000000
000000
000000
0fe000
041000
040800
041000
07e000
041000
040800
040800
041000
0fe000
000000
000000
000000
ENDCHAR
STARTCHAR 2364
ENCODING 9060
SWIDTH 954 0
DWIDTH 18 0
BBX 18 19 0 -1
BITMAP
000000
000000
000000
000000
000000
000000
07fc00
020400
020400
020000
020000
020000
020000
020000
020000
070000
000000
000000
000000
ENDCHAR
STARTCHAR 2365
ENCODING 9061
SWIDTH 954 0
DWIDTH 18 0
BBX 18 19 0 -1
BITMAP
000000
000000
000000
000000
000000
000000
01f800
009000
011000
011000
021000
021000
041000
041000
081000
1ffc00
100400
000000
000000
ENDCHAR
STARTCHAR 2366
ENCODING 9062
SWIDTH 954 0
DWIDTH 18 0
BBX 18 19 0 -1
BITMAP
000000
000000
000000
000000
000000
000000
03e000
041000
080800
080800
0ff800
080000
080000
080800
041000
03e000
000000
000000
000000
ENDCHAR
STARTCHAR 2367
ENCODING 9063
SWIDTH 954 0
DWIDTH 18 0
BBX 18 19 0 -1
BITMAP
000000
000000
036000
036000
000000
000000
03e000
041000
080800
080800
0ff800
080000
080000
080800
041000
03e000
000000
000000
000000
ENDCHAR
STARTCHAR 2368
ENCODING 9064
SWIDTH 954 0
DWIDTH 18 0
BBX 18 19 0 -1
BITMAP
000000
000000
000000
000000
000000
000000
088800
0c9800
049000
049000
03e000
049000
049000
049000
088800
1c9c00
000000
000000
000000
ENDCHAR
STARTCHAR 2369
ENCODING 9065
SWIDTH 954 0
DWIDTH 18 0
BBX 18 19 0 -1
BITMAP
000000
000000
000000
000000
000000
000000
03e000
041000
080800
001000
03e000
001000
000800
080800
041000
03e000
000000
000000
000000
ENDCHAR
STARTCHAR 236a
ENCODING 9066
SWIDTH 954 0
DWIDTH 18 0
BBX 18 19 0 -1
BITMAP
000000
000000
000000
000000
000000
000000
1c3800
083000
085000
085000
089000
091000
091000
0a1000
0c1000
1c3800
000000
000000
000000
ENDCHAR
STARTCHAR 236b
ENCODING 9067
SWIDTH 954 0
DWIDTH 18 0
BBX 18 19 0 -1
BITMAP
000000
000000
066000
066000
018000
000000
1c3800
083000
085000
085000
089000
091000
091000
0a1000
0c1000
1c3800
000000
000000
000000
ENDCHAR
STARTCHAR 236c
ENCODING 9068
SWIDTH 954 0
DWIDTH 18 0
BBX 18 19 0 -1
BITMAP
000000
000000
000000
000000
000000
000000
0e3800
045800
044000
048000
078000
044000
044000
042000
041000
0e3c00
000000
000000
000000
ENDCHAR
STARTCHAR 236d
ENCODING 9069
SWIDTH 954 0
DWIDTH 18 0
BBX 18 19 0 -1
BITMAP
000000
000000
000000
000000
000000
000000
00fc00
004800
004800
008800
008800
010800
010800
1a0800
1a0800
0c1c00
000000
000000
000000
ENDCHAR
STARTCHAR 236e
ENCODING 9070
SWIDTH 954 0
DWIDTH 18 0
BBX 18 19 0 -1
BITMAP
000000
000000
000000
000000
000000
000000
1c1c00
0c1800
0c1800
0a2800
0a2800
094800
094800
088800
088800
1c1c00
000000
000000
000000
ENDCHAR
STARTCHAR 236f
ENCODING 9071
SWIDTH 954 0
DWIDTH 18 0
BBX 18 19 0 -1
BITMAP
000000
000000
000000
000000
000000
000000
1c3800
081000
081000
081000
0ff000
081000
081000
081000
081000
1c3800
000000
000000
000000
ENDCHAR
STARTCHAR 2370
ENCODING 9072
SWIDTH 954 0
DWIDTH 18 0
BBX 18 19 0 -1
BITMAP
000000
000000
000000
000000
000000
000000
03c000
042000
081000
081000
081000
081000
081000
081000
042000
03c000
000000
000000
000000
ENDCHAR
STARTCHAR 2371
ENCODING 9073
SWIDTH 954 0
DWIDTH 18 0
BBX 18 19 0 -1
BITMAP
000000
000000
000000
000000
000000
000000
1ff800
081000
081000
081000
081000
081000
081000
081000
081000
1c3800
000000
000000
000000
ENDCHAR
STARTCHAR 2372
ENCODING 9074
SWIDTH 954 0
DWIDTH 18 0
BBX 18 19 0 -1
BITMAP
000000
000000
000000
000000
000000
000000
0de000
061000
040800
040800
040800
040800
061000
05e000
040000
040000
0e0000
000000
000000
ENDCHAR
STARTCHAR 2373
ENCODING 9075
SWIDTH 954 0
DWIDTH 18 0
BBX 18 19 0 -1
BITMAP
000000
000000
000000
000000
000000
000000
03e000
041000
081800
080000
080000
080000
080000
080800
041000
03e000
000000
000000
000000
ENDCHAR
STARTCHAR 2374
ENCODING 9076
SWIDTH 954 0
DWIDTH 18 0
BBX 18 19 0 -1
BITMAP
000000
000000
000000
000000
000000
000000
0ff800
088800
008000
008000
008000
008000
008000
008000
008000
01c000
000000
000000
000000
ENDCHAR
STARTCHAR 2375
ENCODING 9077
SWIDTH 954 0
DWIDTH 18 0
BBX 18 19 0 -1
BITMAP
000000
000000
000000
000000
000000
000000
0e3800
041000
022000
022000
014000
014000
008000
008000
010000
0d0000
060000
000000
000000
ENDCHAR
STARTCHAR 2376
ENCODING 9078
SWIDTH 954 0
DWIDTH 18 0
BBX 18 19 0 -1
BITMAP
000000
000000
000000
000000
000000
000000
018000
008000
0eb800
11c400
108400
108400
11c400
0eb800
008000
008000
01c000
000000
000000
ENDCHAR
STARTCHAR 2377
ENCODING 9079
SWIDTH 954 0
DWIDTH 18 0
BBX 18 19 0 -1
BITMAP
000000
000000
000000
000000
000000
000000
0f3c00
021000
012000
012000
00c000
00c000
012000
012000
021000
0f3c00
000000
000000
000000
ENDCHAR
STARTCHAR 2378
ENCODING 9080
SWIDTH 954 0
DWIDTH 18 0
BBX 18 19 0 -1
BITMAP
000000
000000
000000
000000
000000
000000
1c3800
081000
081000
081000
081000
081000
081000
081000
081000
1ffc00
000400
000000
000000
ENDCHAR
STARTCHAR 2379
ENCODING 9081
SWIDTH 954 0
DWIDTH 18 0
BBX 18 19 0 -1
BITMAP
000000
000000
000000
000000
000000
000000
1c3800
081000
081000
081000
081000
041000
03f000
001000
001000
003800
000000
000000
000000
ENDCHAR
STARTCHAR 237a
ENCODING 9082
SWIDTH 954 0
DWIDTH 18 0
BBX 18 19 0 -1
BITMAP
000000
000000
000000
000000
000000
000000
1ddc00
088800
088800
088800
088800
088800
088800
088800
088800
1ffc00
000000
000000
000000
ENDCHAR
STARTCHAR 237b
ENCODING 9083
SWIDTH 954 0
DWIDTH 18 0
BBX 18 19 0 -1
BITMAP
000000
000000
000000
000000
000000
000000
1ddc00
088800
088800
088800
088800
088800
088800
088800
088800
1ffe00
000200
000000
000000
ENDCHAR
STARTCHAR 237c
ENCODING 9084
SWIDTH 954 0
DWIDTH 18 0
BBX 18 19 0 -1
BITMAP
000000
000000
000000
000000
000000
000000
1f0000
120000
120000
020000
03e000
021000
020800
020800
021000
07e000
000000
000000
000000
ENDCHAR
STARTCHAR 237d
ENCODING 9085
SWIDTH 954 0
DWIDTH 18 0
BBX 18 19 0 -1
BITMAP
000000
000000
000000
000000
000000
000000
1c1c00
080800
080800
080800
0f8800
084800
082800
082800
084800
1f9c00
000000
000000
000000
ENDCHAR
STARTCHAR 237e
ENCODING 9086
SWIDTH 954 0
DWIDTH 18 0
BBX 18 19 0 -1
BITMAP
000000
000000
000000
000000
000000
000000
0e0000
040000
040000
040000
07e000
041000
040800
040800
041000
0fe000
000000
000000
000000
ENDCHAR
STARTCHAR 2421
ENCODING 9249
SWIDTH 954 0
DWIDTH 18 0
BBX 18 19 0 -1
BITMAP
000000
000000
000000
000000
000000
000000
03c000
042000
081000
001000
033000
04d000
001000
081000
042000
03c000
000000
000000
000000
ENDCHAR
STARTCHAR 2422
ENCODING 9250
SWIDTH 954 0
DWIDTH 18 0
BBX 18 19 0 -1
BITMAP
000000
000000
000000
000000
000000
000000
1c7000
088800
090400
090400
0f0400
090400
090400
090400
088800
1c7000
000000
000000
000000
ENDCHAR
STARTCHAR 2423
ENCODING 9251
SWIDTH 954 0
DWIDTH 18 0
BBX 18 19 0 -1
BITMAP
000000
000000
000000
000000
000000
000000
03f000
041000
081000
081000
041000
03f000
021000
041000
041000
183800
000000
000000
000000
ENDCHAR
STARTCHAR 2424
ENCODING 9252
SWIDTH 954 0
DWIDTH 18 0
BBX 18 19 0 -1
BITMAP
000000
000000
000000
000000
000000
000000
000000
000000
ffff00
ffff00
000000
000000
000000
000000
000000
000000
000000
000000
000000
ENDCHAR
STARTCHAR 2425
ENCODING 9253
SWIDTH 954 0
DWIDTH 18 0
BBX 18 19 0 -1
BITMAP
000000
018000
018000
018000
018000
018000
018000
018000
018000
018000
018000
018000
018000
018000
018000
018000
018000
000000
000000
ENDCHAR
STARTCHAR 2426
ENCODING 9254
SWIDTH 954 0
DWIDTH 18 0
BBX 18 19 0 -1
BITMAP
000000
000000
000000
000000
000000
000000
000000
000000
01ff00
01ff00
018000
018000
018000
018000
018000
018000
018000
000000
000000
ENDCHAR
STARTCHAR 2427
ENCODING 9255
SWIDTH 954 0
DWIDTH 18 0
BBX 18 19 0 -1
BITMAP
000000
000000
000000
000000
000000
000000
000000
000000
ff8000
ff8000
018000
018000
018000
018000
018000
018000
018000
000000
000000
ENDCHAR
STARTCHAR 2428
ENCODING 9256
SWIDTH 954 0
DWIDTH 18 0
BBX 18 19 0 -1
BITMAP
000000
018000
018000
018000
018000
018000
018000
018000
ff8000
ff8000
000000
000000
000000
000000
000000
000000
000000
000000
000000
ENDCHAR
STARTCHAR 2429
ENCODING 9257
SWIDTH 954 0
DWIDTH 18 0
BBX 18 19 0 -1
BITMAP
000000
018000
018000
018000
018000
018000
018000
018000
01ff00
01ff00
000000
000000
000000
000000
000000
000000
000000
000000
000000
ENDCHAR
STARTCHAR 242a
ENCODING 9258
SWIDTH 954 0
DWIDTH 18 0
BBX 18 19 0 -1
BITMAP
000000
018000
018000
018000
018000
018000
018000
018000
01ff00
01ff00
018000
018000
018000
018000
018000
018000
018000
000000
000000
ENDCHAR
STARTCHAR 242b
ENCODING 9259
SWIDTH 954 0
DWIDTH 18 0
BBX 18 19 0 -1
BITMAP
000000
000000
000000
000000
000000
000000
000000
000000
ffff00
ffff00
018000
018000
018000
018000
018000
018000
018000
000000
000000
ENDCHAR
STARTCHAR 242c
ENCODING 9260
SWIDTH 954 0
DWIDTH 18 0
BBX 18 19 0 -1
BITMAP
000000
018000
018000
018000
018000
018000
018000
018000
ff8000
ff8000
018000
018000
018000
018000
018000
018000
018000
000000
000000
ENDCHAR
STARTCHAR 242d
ENCODING 9261
SWIDTH 954 0
DWIDTH 18 0
BBX 18 19 0 -1
BITMAP
000000
018000
018000
018000
018000
018000
018000
018000
ffff00
ffff00
000000
000000
000000
000000
000000
000000
000000
000000
000000
ENDCHAR
STARTCHAR 242e
ENCODING 9262
SWIDTH 954 0
DWIDTH 18 0
BBX 18 19 0 -1
BITMAP
000000
018000
018000
018000
018000
018000
018000
018000
ffff00
ffff00
018000
018000
018000
018000
018000
018000
018000
000000
000000
ENDCHAR
STARTCHAR 242f
ENCODING 9263
SWIDTH 954 0
DWIDTH 18 0
BBX 18 19 0 -1
BITMAP
000000
018000
018000
018000
018000
018000
018000
018000
01ff00
018000
018000
018000
018000
018000
018000
018000
018000
000000
000000
ENDCHAR
STARTCHAR 2430
ENCODING 9264
SWIDTH 954 0
DWIDTH 18 0
BBX 18 19 0 -1
BITMAP
000000
000000
000000
000000
000000
000000
000000
000000
ffff00
ffff00
010000
010000
010000
010000
010000
010000
010000
000000
000000
ENDCHAR
STARTCHAR 2431
ENCODING 9265
SWIDTH 954 0
DWIDTH 18 0
BBX 18 19 0 -1
BITMAP
000000
018000
018000
018000
018000
018000
018000
018000
ff8000
018000
018000
018000
018000
018000
018000
018000
018000
000000
000000
ENDCHAR
STARTCHAR 2432
ENCODING 9266
SWIDTH 954 0
DWIDTH 18 0
BBX 18 19 0 -1
BITMAP
000000
010000
010000
010000
010000
010000
010000
010000
ffff00
ffff00
000000
000000
000000
000000
000000
000000
000000
000000
000000
ENDCHAR
STARTCHAR 2433
ENCODING 9267
SWIDTH 954 0
DWIDTH 18 0
BBX 18 19 0 -1
BITMAP
000000
010000
010000
010000
010000
010000
010000
010000
ffff00
ffff00
010000
010000
010000
010000
010000
010000
010000
000000
000000
ENDCHAR
STARTCHAR 2434
ENCODING 9268
SWIDTH 954 0
DWIDTH 18 0
BBX 18 19 0 -1
BITMAP
000000
010000
010000
010000
010000
010000
010000
010000
01ff00
01ff00
010000
010000
010000
010000
010000
010000
010000
000000
000000
ENDCHAR
STARTCHAR 2435
ENCODING 9269
SWIDTH 954 0
DWIDTH 18 0
BBX 18 19 0 -1
BITMAP
000000
000000
000000
000000
000000
000000
000000
000000
ffff00
018000
018000
018000
018000
018000
018000
018000
018000
000000
000000
ENDCHAR
STARTCHAR 2436
ENCODING 9270
SWIDTH 954 0
DWIDTH 18 0
BBX 18 19 0 -1
BITMAP
000000
010000
010000
010000
010000
010000
010000
010000
ff0000
ff0000
010000
010000
010000
010000
010000
010000
010000
000000
000000
ENDCHAR
STARTCHAR 2437
ENCODING 9271
SWIDTH 954 0
DWIDTH 18 0
BBX 18 19 0 -1
BITMAP
000000
018000
018000
018000
018000
018000
018000
018000
ffff00
000000
000000
000000
000000
000000
000000
000000
000000
000000
000000
ENDCHAR
STARTCHAR 2438
ENCODING 9272
SWIDTH 954 0
DWIDTH 18 0
BBX 18 19 0 -1
BITMAP
000000
018000
018000
018000
018000
018000
018000
018000
ffff00
018000
018000
018000
018000
018000
018000
018000
018000
000000
000000
ENDCHAR
STARTCHAR 2439
ENCODING 9273
SWIDTH 954 0
DWIDTH 18 0
BBX 18 19 0 -1
BITMAP
000000
400000
400000
400000
400000
400000
400000
400000
400000
400000
400000
400000
400000
400000
400000
400000
400000
000000
000000
ENDCHAR
STARTCHAR 243a
ENCODING 9274
SWIDTH 954 0
DWIDTH 18 0
BBX 18 19 0 -1
BITMAP
000000
000000
000000
000000
000000
000000
000000
000000
1f7c00
000000
000000
000000
000000
000000
000000
000000
000000
000000
000000
ENDCHAR
STARTCHAR 243b
ENCODING 9275
SWIDTH 954 0
DWIDTH 18 0
BBX 18 19 0 -1
BITMAP
000000
400000
200000
100000
200000
400000
200000
100000
200000
400000
200000
100000
200000
400000
200000
100000
200000
000000
000000
ENDCHAR
STARTCHAR 243c
ENCODING 9276
SWIDTH 954 0
DWIDTH 18 0
BBX 18 19 0 -1
BITMAP
000000
000000
000000
000000
000000
000000
000000
000000
000000
000000
000000
000000
000000
000000
222200
555500
088800
000000
000000
ENDCHAR
STARTCHAR 243d
ENCODING 9277
SWIDTH 954 0
DWIDTH 18 0
BBX 18 19 0 -1
BITMAP
000000
008000
014000
022000
041000
080800
100400
200200
7e3f00
022000
022000
022000
022000
022000
022000
022000
03e000
000000
000000
ENDCHAR
STARTCHAR 243e
ENCODING 9278
SWIDTH 954 0
DWIDTH 18 0
BBX 18 19 0 -1
BITMAP
000000
7ffe00
000000
780000
700000
700000
480000
040000
020000
010000
008000
004000
002000
001000
000800
000400
000200
000000
000000
ENDCHAR
STARTCHAR 243f
ENCODING 9279
SWIDTH 954 0
DWIDTH 18 0
BBX 18 19 0 -1
BITMAP
000000
000000
000000
480000
580000
7fff00
580000
480000
000000
000000
000900
000d00
7fff00
000d00
000900
000000
000000
000000
000000
ENDCHAR
STARTCHAR 2440
ENCODING 9280
SWIDTH 954 0
DWIDTH 18 0
BBX 18 19 0 -1
BITMAP
000000
000000
000000
000000
000000
000000
1ffc00
000400
000400
000400
000400
000000
000000
000000
000000
000000
000000
000000
000000
ENDCHAR
STARTCHAR 2441
ENCODING 9281
SWIDTH 954 0
DWIDTH 18 0
BBX 18 19 0 -1
BITMAP
000000
008000
008000
008000
008000
008000
008000
000000
000000
000000
000000
008000
008000
008000
008000
008000
008000
000000
000000
ENDCHAR
STARTCHAR 2442
ENCODING 9282
SWIDTH 954 0
DWIDTH 18 0
BBX 18 19 0 -1
BITMAP
000000
038000
038000
010000
010000
000000
000000
000000
000000
000000
000000
000000
000000
000000
000000
000000
000000
000000
000000
ENDCHAR
STARTCHAR 2443
ENCODING 9283
SWIDTH 954 0
DWIDTH 18 0
BBX 18 19 0 -1
BITMAP
000000
077000
077000
022000
022000
000000
000000
000000
000000
000000
000000
000000
000000
000000
000000
000000
000000
000000
000000
ENDCHAR
STARTCHAR 2444
ENCODING 9284
SWIDTH 954 0
DWIDTH 18 0
BBX 18 19 0 -1
BITMAP
000000
100400
242200
24a200
24fa00
5ea100
452100
44f900
4c2100
4e7100
557100
54a900
44a900
252600
242200
242200
100400
000000
000000
ENDCHAR
STARTCHAR 2445
ENCODING 9285
SWIDTH 954 0
DWIDTH 18 0
BBX 18 19 0 -1
BITMAP
000000
000000
420000
620000
620000
620000
527000
528800
528800
4a8800
4a8800
4a8800
468800
468800
468b00
427300
000000
000000
000000
ENDCHAR
STARTCHAR 2446
ENCODING 9286
SWIDTH 954 0
DWIDTH 18 0
BBX 18 19 0 -1
BITMAP
000000
000000
7f0000
080000
080000
080000
080000
09e800
090800
090800
090800
09e800
090800
090800
090800
09ef00
000000
000000
000000
ENDCHAR
STARTCHAR 2447
ENCODING 9287
SWIDTH 954 0
DWIDTH 18 0
BBX 18 19 0 -1
BITMAP
000000
222200
212400
27ff00
740100
25fd00
210400
29fc00
300000
21fc00
602000
23fe00
202000
27ff00
202000
202000
60e000
000000
000000
ENDCHAR
STARTCHAR 2448
ENCODING 9288
SWIDTH 954 0
DWIDTH 18 0
BBX 18 19 0 -1
BITMAP
000000
7fff00
041000
041000
041000
041000
041000
041000
041000
041000
041000
041000
081000
101100
201100
401100
000f00
000000
000000
ENDCHAR
STARTCHAR 2449
ENCODING 9289
SWIDTH 954 0
DWIDTH 18 0
BBX 18 19 0 -1
BITMAP
000000
080600
083800
084000
7f7f00
1c4400
1a4400
294400
488400
080400
008000
7fff00
01c000
02a000
049000
188800
608700
000000
000000
ENDCHAR
STARTCHAR 244a
ENCODING 9290
SWIDTH 954 0
DWIDTH 18 0
BBX 18 19 0 -1
BITMAP
000000
083c00
082400
7f2400
082400
3e2400
002400
7f4300
410000
007f00
3e2100
002200
7f1400
410800
411400
412200
7f4100
000000
000000
ENDCHAR
STARTCHAR 244b
ENCODING 9291
SWIDTH 954 0
DWIDTH 18 0
BBX 18 19 0 -1
BITMAP
000000
402000
23fe00
102000
01fc00
002000
07ff00
402000
204800
019000
00a000
004400
07fe00
107100
20a800
412400
022200
000000
000000
ENDCHAR
ENDFONT
